<?xml version="1.0" encoding="utf-8"?>
<!-- Generator: Adobe Illustrator 19.0.0, SVG Export Plug-In . SVG Version: 6.00 Build 0)  -->
<svg version="1.1" id="objects" xmlns="http://www.w3.org/2000/svg" xmlns:xlink="http://www.w3.org/1999/xlink" x="0px" y="0px"
	 viewBox="0 0 208.6 41.3" style="enable-background:new 0 0 208.6 41.3;" width="559" height="114" xml:space="preserve">
<style type="text/css">
	.st0{fill:url(#SVGID_1_);}
	.st1{fill:url(#SVGID_2_);}
	.st2{fill:url(#SVGID_3_);}
</style>
<linearGradient id="SVGID_1_" gradientUnits="userSpaceOnUse" x1="31.4202" y1="25.136" x2="208.5952" y2="25.136">
	<stop  offset="0" style="stop-color:#009AD6"/>
	<stop  offset="1" style="stop-color:#11699C"/>
</linearGradient>
<path class="st0" d="M31.4,14.1c0,0,0.7-0.3,1.9-1c0.6-0.3,1.4-0.7,2.3-1c0.9-0.3,2.1-0.9,3.3-1.2c2.5-0.8,5.7-1.4,9.4-1.8
	c3.7-0.3,7.9-0.2,12.4,0.3C65.2,10,70,11,74.9,12.3c4.9,1.3,9.9,2.9,15,4.5c2.5,0.8,5,1.6,7.6,2.4c2.5,0.8,5.1,1.5,7.6,2.3
	c5.1,1.4,10.2,2.6,15.2,3c5,0.6,9.9,0.5,14.7-0.1c1.2-0.2,2.4-0.4,3.6-0.6c1.4-0.3,2.7-0.5,4.1-0.8c2.7-0.5,5.4-1.1,8-1.6
	c5.3-1,10.4-1.9,15.4-2.6c4.9-0.7,9.7-1.2,14.3-1.3c4.5-0.1,8.8,0.3,12.5,1.1c3.7,0.9,6.7,2.2,9,3.4c2.3,1.3,4,2.4,5.1,3.3
	c1.1,0.8,1.7,1.3,1.7,1.3s-0.7-0.1-2.1-0.4c-1.3-0.3-3.3-0.6-5.7-1c-2.4-0.3-5.3-0.5-8.6-0.2c-3.2,0.3-6.8,1-10.7,2
	c-3.9,1-8.2,2.4-12.8,3.9c-4.6,1.5-9.5,3.1-14.6,4.7c-2.6,0.8-5.2,1.6-7.8,2.3c-1.3,0.4-2.7,0.8-4,1.2c-1.5,0.4-3.1,0.7-4.6,1.1
	c-6.3,1.3-12.9,1.4-19.2,0.7c-6.3-0.7-12.4-2.2-18-4.1c-2.8-0.9-5.5-2-8.2-3.1c-2.6-1.1-5.2-2.2-7.6-3.3c-4.9-2.2-9.5-4.5-13.8-6.5
	c-4.3-2-8.4-3.8-12.2-5.2c-3.8-1.4-7.4-2.5-10.6-3.2c-3.2-0.7-6.2-1.1-8.6-1.3c-2.4-0.1-4.4-0.3-5.8-0.2
	C32.2,14.1,31.4,14.1,31.4,14.1z"/>
<linearGradient id="SVGID_2_" gradientUnits="userSpaceOnUse" x1="0" y1="24.0492" x2="70.3214" y2="24.0492">
	<stop  offset="0" style="stop-color:#0770B2"/>
	<stop  offset="1" style="stop-color:#18477E"/>
</linearGradient>
<path class="st1" d="M0,27c0,0,1-0.6,2.8-1.5c1.8-0.9,4.4-2.1,7.7-3.3c1.6-0.5,3.4-1.2,5.3-1.7c1.9-0.5,4-1,6.1-1.4
	c1.1-0.2,2.2-0.3,3.3-0.5c0.6-0.1,1.1-0.1,1.7-0.2c0.6,0,1.1-0.1,1.7-0.1c2.3-0.2,4.6-0.2,7-0.2c1.2,0,2.3,0.1,3.5,0.2
	c1.2,0.1,2.3,0.2,3.5,0.4c1.1,0.2,2.3,0.3,3.4,0.5c1.1,0.3,2.2,0.5,3.3,0.7c2.1,0.5,4.1,1.2,6,1.8c1.9,0.7,3.6,1.5,5.2,2.2
	c1.6,0.8,3,1.6,4.2,2.2c1.3,0.6,2.2,1.4,3.1,1.9c1.7,1.1,2.6,1.8,2.6,1.8s-1.1-0.2-3.1-0.8c-1-0.2-2.1-0.6-3.5-0.9
	c-1.3-0.3-2.8-0.7-4.4-1.1c-1.6-0.3-3.4-0.7-5.3-1.1c-1.9-0.3-3.8-0.7-5.9-1c-1-0.1-2-0.3-3.1-0.4c-1-0.1-2.1-0.2-3.2-0.3l-1.6-0.2
	l-1.6-0.1c-1.1,0-2.2-0.1-3.3-0.2c-2.2,0-4.4-0.1-6.5,0c-2.2,0-4.3,0.2-6.3,0.3c-2.1,0.2-4.1,0.3-5.9,0.6c-1.9,0.2-3.7,0.4-5.4,0.6
	c-1.7,0.3-3.2,0.4-4.6,0.6c-1.4,0.2-2.6,0.3-3.6,0.5C1.2,26.9,0,27,0,27"/>
<linearGradient id="SVGID_3_" gradientUnits="userSpaceOnUse" x1="62.6809" y1="10.4382" x2="202.8525" y2="10.4382" gradientTransform="matrix(0.9998 -1.820000e-002 1.820000e-002 0.9998 -0.5482 2.2459)">
	<stop  offset="0" style="stop-color:#9BF3FF"/>
	<stop  offset="1" style="stop-color:#4DB6E0"/>
</linearGradient>
<path class="st2" d="M202.6,18.7c0,0-17.8-19.1-39-18.7c-21.2,0.4-23.5,6.8-44.7,7.2C97.6,7.6,91.4-1.7,62.2,6
	c24.9,1.7,39.1,13.8,61.6,14C158.6,20.5,172,3.7,202.6,18.7z"/>
</svg>
