<svg xmlns="http://www.w3.org/2000/svg" xmlns:xlink="http://www.w3.org/1999/xlink" preserveAspectRatio="xMidYMid" width="24.03" height="24.031" viewBox="0 0 24.03 24.031">
  <defs>
    <style>
      .cls-1 {
        fill: #d7d7d7;
        fill-rule: evenodd;
      }
    </style>
  </defs>
  <path d="M13.747,12.015 L23.610,2.196 C24.083,1.727 24.083,0.968 23.610,0.501 C23.139,0.032 22.372,0.032 21.901,0.501 L12.046,10.312 L2.099,0.355 C1.628,-0.119 0.862,-0.119 0.390,0.355 C-0.082,0.829 -0.082,1.597 0.390,2.071 L10.329,12.021 L0.354,21.951 C-0.118,22.420 -0.118,23.178 0.354,23.646 C0.826,24.114 1.592,24.114 2.064,23.646 L12.030,13.724 L21.937,23.642 C22.408,24.115 23.174,24.115 23.646,23.642 C24.118,23.167 24.118,22.399 23.646,21.926 L13.747,12.015 Z" class="cls-1"/>
</svg>
