<svg xmlns="http://www.w3.org/2000/svg" xmlns:xlink="http://www.w3.org/1999/xlink" preserveAspectRatio="xMidYMid" width="12" height="16" viewBox="0 0 12 16">
  <defs>
    <style>
      .cls-1 {
        fill: #0f5c99;
        fill-rule: evenodd;
      }
    </style>
  </defs>
  <path d="M6.000,-0.000 C2.691,-0.000 -0.000,2.599 -0.000,5.794 C-0.000,9.759 5.369,15.580 5.598,15.825 C5.812,16.057 6.187,16.057 6.402,15.825 C6.630,15.580 12.000,9.759 12.000,5.794 C12.000,2.599 9.308,-0.000 6.000,-0.000 ZM6.000,8.709 C4.335,8.709 2.981,7.402 2.981,5.794 C2.981,4.186 4.335,2.878 6.000,2.878 C7.664,2.878 9.018,4.186 9.018,5.794 C9.018,7.402 7.664,8.709 6.000,8.709 Z" class="cls-1"/>
</svg>
