<?xml version="1.0" encoding="utf-8"?>
<!-- Generator: Adobe Illustrator 19.0.0, SVG Export Plug-In . SVG Version: 6.00 Build 0)  -->
<svg version="1.1" id="Capa_1" xmlns="http://www.w3.org/2000/svg" xmlns:xlink="http://www.w3.org/1999/xlink" x="0px" y="0px"
	 viewBox="-41 149 496 496" style="enable-background:new -41 149 496 496;" xml:space="preserve">
<style type="text/css">
	.st0{fill:#FFFFFF;}
	.st1{fill:#0F5C99;}
</style>
<g>
	<path class="st0" d="M55,381v20.4c-50.7,14-88,60.4-88,115.6c0,66.3,53.7,120,120,120s120-53.7,120-120c0-55.2-37.3-101.5-88-115.6
		V381H55z"/>
	<path class="st0" d="M271,637h128c17.7,0,32-14.3,32-32V445H239v160C239,622.7,253.3,637,271,637z"/>
</g>
<path class="st1" d="M127,395.5V309h32v-36.5c3-1.8,5.9-3.9,8.2-6.6c6.1-7,8.8-16.4,7.5-25.7c-1.3-9.3-7.4-17.9-16.1-22.9
	c-5.4-3.1-10.9-4.5-16.6-4.3c-3.7-14.5-17.7-25.1-33.3-23.9C101.7,165.7,80,149,55,149c-30.9,0-56,25.1-56,56c0,0.1,0,0.1,0,0.2
	c-10,7.5-16,19.3-16,31.8v80c0,13.2,10.8,24,24,24c3.1,0,6.1-0.6,8.8-1.7C18.6,349.5,28,357,39,357c2.8,0,5.5-0.6,8-1.5v40
	C-5.1,412.7-41,461.8-41,517c0,70.6,57.4,128,128,128s128-57.4,128-128C215,461.8,179.1,412.7,127,395.5z M143,293H63v-16h80V293z
	 M39,341c-4.4,0-8-3.6-8-8v-16v-8H15v8c0,4.4-3.6,8-8,8s-8-3.6-8-8v-80c0-8.6,4.6-16.4,12.2-20.7l4.5-2.5l-0.5-5.1
	c-0.1-1.2-0.2-2.4-0.2-3.6c0-22.1,17.9-40,40-40c19.9,0,37,14.9,39.6,34.7l1.3,10l9.4-3.6c11.4-4.3,21.6,4.3,21.6,14.7l-0.9,13.4
	l11.5-4.2c4.6-1.7,8.6-1.3,13,1.2c4.4,2.6,7.6,6.9,8.3,11.3c0.7,4.8-0.6,9.3-3.7,12.9c-3.1,3.5-7.5,5.5-12.1,5.5H47v40v32
	C47,337.4,43.4,341,39,341z M87,629c-61.8,0-112-50.2-112-112c0-50.1,33.8-94.5,82.1-107.8l5.9-1.6V333v-24h48v98.5l5.9,1.6
	C165.2,422.5,199,466.9,199,517C199,578.8,148.8,629,87,629z"/>
<path class="st1" d="M127,541c0,13.2,10.8,24,24,24s24-10.8,24-24s-10.8-24-24-24S127,527.8,127,541z M159,541c0,4.4-3.6,8-8,8
	s-8-3.6-8-8s3.6-8,8-8S159,536.6,159,541z"/>
<path class="st1" d="M39,493c13.2,0,24-10.8,24-24s-10.8-24-24-24s-24,10.8-24,24S25.8,493,39,493z M39,461c4.4,0,8,3.6,8,8
	s-3.6,8-8,8s-8-3.6-8-8S34.6,461,39,461z"/>
<rect x="391" y="461" class="st1" width="16" height="128"/>
<path class="st1" d="M455,171.4v-0.9c0-11.9-9.7-21.5-21.5-21.5c-9.8,0-18.4,6.6-20.8,16.1L360.8,365H215v48h16v192
	c0,22.1,17.9,40,40,40h128c22.1,0,40-17.9,40-40V413h16v-48h-45.9l45.3-188.6C454.8,174.8,455,173.1,455,171.4z M439,397h-32v16h16
	v192c0,13.2-10.8,24-24,24H271c-13.2,0-24-10.8-24-24v-16h32v-16h-32v-24h48v-16h-48v-32h32v-16h-32v-24h48v-16h-48v-32h144v-16H231
	v-16h208V397z M439,171.4c0,0.4,0,0.9-0.2,1.3L392.7,365h-15.4l50.8-195.9c0.6-2.4,2.8-4.1,5.4-4.1c3,0,5.5,2.5,5.5,5.5V171.4z"/>
<path class="st1" d="M231,245c17.6,0,32-14.4,32-32s-14.4-32-32-32s-32,14.4-32,32S213.4,245,231,245z M231,197c8.8,0,16,7.2,16,16
	s-7.2,16-16,16s-16-7.2-16-16S222.2,197,231,197z"/>
<path class="st1" d="M255,301c0,13.2,10.8,24,24,24s24-10.8,24-24s-10.8-24-24-24S255,287.8,255,301z M279,293c4.4,0,8,3.6,8,8
	s-3.6,8-8,8s-8-3.6-8-8S274.6,293,279,293z"/>
<path class="st1" d="M151,349c0,13.2,10.8,24,24,24s24-10.8,24-24s-10.8-24-24-24S151,335.8,151,349z M175,341c4.4,0,8,3.6,8,8
	s-3.6,8-8,8s-8-3.6-8-8S170.6,341,175,341z"/>
<rect x="391" y="429" class="st1" width="16" height="16"/>
<rect x="31" y="229" class="st1" width="16" height="16"/>
<rect x="47" y="189" class="st1" width="16" height="16"/>
<rect x="95" y="221" class="st1" width="16" height="16"/>
<path class="st1" d="M7,517H-9c0,5.9,0.5,11.7,1.6,17.4l15.7-2.9C7.4,526.8,7,521.9,7,517z"/>
<path class="st1" d="M12.5,546.1l-14.9,5.8C12,589,47.2,613,87,613v-16C53.8,597,24.5,577,12.5,546.1z"/>
</svg>
