<svg xmlns="http://www.w3.org/2000/svg" xmlns:xlink="http://www.w3.org/1999/xlink" preserveAspectRatio="xMidYMid" width="25" height="25" viewBox="0 0 25 25">
  <defs>
    <style>
      .cls-1 {
        fill: #e7e7e7;
        fill-rule: evenodd;
      }
    </style>
  </defs>
  <path d="M12.451,25.000 C5.519,25.000 -0.000,19.282 -0.000,12.451 C-0.000,5.569 5.569,-0.000 12.451,-0.000 C19.274,-0.000 25.000,5.511 25.000,12.451 C25.000,19.350 19.309,25.000 12.451,25.000 ZM12.451,1.455 C6.393,1.455 1.455,6.393 1.455,12.451 C1.455,18.563 6.393,23.545 12.451,23.545 C18.563,23.545 23.545,18.563 23.545,12.451 C23.545,6.393 18.563,1.455 12.451,1.455 ZM12.451,22.070 C7.220,22.070 2.930,17.722 2.930,12.451 C2.930,7.197 7.207,2.930 12.451,2.930 C17.725,2.930 22.070,7.223 22.070,12.451 C22.070,17.717 17.700,22.070 12.451,22.070 ZM18.725,7.311 L18.246,7.790 C18.103,7.933 17.915,8.005 17.728,8.005 C17.081,8.005 16.747,7.217 17.210,6.754 L17.685,6.279 C16.444,5.249 14.888,4.578 13.184,4.427 L13.184,5.127 C13.184,5.531 12.856,5.859 12.451,5.859 C12.047,5.859 11.719,5.531 11.719,5.127 L11.719,4.428 C10.046,4.580 8.520,5.244 7.298,6.263 L7.790,6.754 C8.076,7.040 8.076,7.504 7.790,7.790 C7.504,8.076 7.040,8.076 6.754,7.790 L6.263,7.298 C5.244,8.520 4.580,10.046 4.428,11.719 L5.127,11.719 C5.531,11.719 5.859,12.047 5.859,12.451 C5.859,12.856 5.531,13.184 5.127,13.184 L4.427,13.184 C4.578,14.888 5.249,16.444 6.279,17.685 L6.754,17.210 C7.040,16.924 7.504,16.924 7.790,17.210 C8.076,17.496 8.076,17.960 7.790,18.246 L7.311,18.725 C8.530,19.750 10.052,20.419 11.719,20.571 L11.719,19.873 C11.719,19.468 12.047,19.141 12.451,19.141 C12.856,19.141 13.183,19.468 13.183,19.873 L13.183,20.570 C14.857,20.413 16.402,19.725 17.645,18.681 L17.210,18.246 C16.924,17.960 16.924,17.496 17.210,17.210 C17.496,16.924 17.960,16.924 18.246,17.210 L18.681,17.645 C19.725,16.402 20.413,14.857 20.570,13.184 L19.873,13.184 C19.468,13.184 19.141,12.856 19.141,12.451 C19.141,12.047 19.468,11.719 19.873,11.719 L20.571,11.719 C20.419,10.052 19.750,8.530 18.725,7.311 ZM15.996,15.899 C15.710,16.185 15.247,16.185 14.961,15.899 L12.031,12.969 C11.745,12.683 11.745,12.219 12.031,11.933 L14.961,9.003 C15.247,8.718 15.710,8.718 15.996,9.003 C16.282,9.289 16.282,9.753 15.996,10.039 L13.585,12.451 L15.996,14.863 C16.282,15.149 16.282,15.613 15.996,15.899 Z" class="cls-1"/>
</svg>
