<svg xmlns="http://www.w3.org/2000/svg" xmlns:xlink="http://www.w3.org/1999/xlink" preserveAspectRatio="xMidYMid" width="25" height="29" viewBox="0 0 25 29">
  <defs>
    <style>
      .cls-1 {
        fill: #e7e7e7;
        fill-rule: evenodd;
      }
    </style>
  </defs>
  <path d="M22.500,29.000 L2.500,29.000 C1.123,29.000 -0.000,27.858 -0.000,26.451 L-0.000,11.158 C-0.000,11.158 0.000,11.157 0.000,11.157 C0.000,10.947 0.080,10.731 0.236,10.567 C0.239,10.564 0.241,10.560 0.244,10.557 L3.333,7.408 L3.333,0.850 C3.333,0.380 3.706,-0.000 4.167,-0.000 L20.833,-0.000 C21.293,-0.000 21.667,0.380 21.667,0.850 L21.667,7.408 L24.756,10.557 C24.913,10.717 25.000,10.937 25.000,11.157 C25.000,11.157 25.000,11.158 25.000,11.158 L25.000,26.451 C25.000,27.855 23.880,29.000 22.500,29.000 ZM22.155,27.301 L15.488,20.504 L9.512,20.504 L2.845,27.301 L22.155,27.301 ZM3.333,9.811 L2.012,11.158 L3.333,12.505 L3.333,9.811 ZM1.667,13.209 L1.667,26.099 L7.988,19.654 L1.667,13.209 ZM20.000,7.760 C20.000,7.760 20.000,7.760 20.000,7.759 L20.000,1.699 L5.000,1.699 L5.000,7.759 C5.000,7.760 5.000,7.760 5.000,7.760 L5.000,14.205 L9.512,18.805 L15.488,18.805 L20.000,14.205 L20.000,7.760 ZM21.667,9.811 L21.667,12.505 L22.988,11.158 L21.667,9.811 ZM23.333,13.209 L17.012,19.654 L23.333,26.099 L23.333,13.209 ZM10.259,12.926 C11.495,13.733 13.029,13.810 14.465,13.136 C14.883,12.940 15.378,13.126 15.570,13.553 C15.763,13.979 15.580,14.483 15.162,14.679 C13.197,15.601 11.083,15.482 9.360,14.356 C7.674,13.255 6.667,11.381 6.667,9.346 C6.667,6.066 9.283,3.398 12.500,3.398 C15.716,3.398 18.333,6.066 18.333,9.346 C18.333,10.751 17.212,11.894 15.833,11.894 C15.193,11.894 14.609,11.648 14.167,11.243 C13.724,11.648 13.140,11.894 12.500,11.894 C11.121,11.894 10.000,10.751 10.000,9.346 C10.000,7.940 11.121,6.797 12.500,6.797 C13.878,6.797 15.000,7.940 15.000,9.346 C15.000,9.350 15.000,9.354 15.000,9.359 C15.021,9.871 15.413,10.195 15.833,10.195 C16.293,10.195 16.667,9.814 16.667,9.346 C16.667,7.003 14.797,5.098 12.500,5.098 C10.202,5.098 8.333,7.003 8.333,9.346 C8.333,10.800 9.053,12.138 10.259,12.926 ZM12.500,8.496 C12.040,8.496 11.667,8.877 11.667,9.346 C11.667,9.814 12.040,10.195 12.500,10.195 C12.914,10.195 13.257,9.886 13.322,9.482 C13.313,9.404 13.315,9.326 13.327,9.249 C13.280,8.826 12.927,8.496 12.500,8.496 Z" class="cls-1"/>
</svg>
