<svg xmlns="http://www.w3.org/2000/svg" xmlns:xlink="http://www.w3.org/1999/xlink" preserveAspectRatio="xMidYMid" width="24.969" height="25" viewBox="0 0 24.969 25">
  <defs>
    <style>
      .cls-1 {
        fill: #e7e7e7;
        fill-rule: evenodd;
      }
    </style>
  </defs>
  <path d="M24.325,18.432 L21.221,15.324 C20.366,14.468 18.973,14.468 18.117,15.324 L16.707,16.737 C16.058,17.386 15.003,17.386 14.355,16.737 L8.240,10.609 C7.590,9.959 7.590,8.906 8.240,8.255 C8.467,8.027 9.120,7.374 9.651,6.842 C10.503,5.989 10.515,4.599 9.650,3.734 L6.547,0.636 C5.691,-0.220 4.299,-0.220 3.445,0.634 C2.807,1.268 2.601,1.473 2.314,1.757 C-0.771,4.847 -0.771,9.874 2.314,12.963 L12.004,22.670 C15.097,25.767 20.103,25.767 23.196,22.670 L24.325,21.540 C25.181,20.683 25.181,19.289 24.325,18.432 ZM4.478,1.672 C4.763,1.387 5.227,1.387 5.513,1.673 L8.616,4.770 C8.902,5.057 8.902,5.520 8.616,5.806 L8.099,6.324 L3.963,2.183 L4.478,1.672 ZM13.038,21.634 L3.349,11.928 C0.962,9.537 0.830,5.784 2.945,3.236 L7.069,7.365 C5.986,8.595 6.031,10.469 7.205,11.645 L13.320,17.773 C13.320,17.773 13.320,17.773 13.320,17.773 C14.493,18.947 16.365,18.996 17.595,17.909 L21.719,22.038 C19.183,24.153 15.442,24.041 13.038,21.634 ZM23.291,20.504 L22.773,21.022 L18.635,16.878 L19.152,16.360 C19.437,16.075 19.901,16.075 20.187,16.360 L23.291,19.468 C23.576,19.754 23.576,20.219 23.291,20.504 Z" class="cls-1"/>
</svg>
