<svg xmlns="http://www.w3.org/2000/svg" xmlns:xlink="http://www.w3.org/1999/xlink" preserveAspectRatio="xMidYMid" width="20" height="28" viewBox="0 0 20 28">
  <defs>
    <style>
      .cls-1 {
        fill: #e7e7e7;
        fill-rule: evenodd;
      }
    </style>
  </defs>
  <path d="M18.589,14.887 L10.854,27.601 C10.704,27.847 10.436,27.998 10.145,28.000 C10.143,28.000 10.141,28.000 10.139,28.000 C9.851,28.000 9.583,27.853 9.431,27.612 L1.493,15.020 C0.516,13.467 -0.000,11.678 -0.000,9.844 C-0.000,4.416 4.486,-0.000 10.000,-0.000 C15.514,-0.000 20.000,4.416 20.000,9.844 C20.000,11.623 19.512,13.367 18.589,14.887 ZM10.000,1.630 C5.405,1.630 1.656,5.320 1.656,9.844 C1.656,11.372 2.096,12.863 2.909,14.156 L10.126,25.604 L17.159,14.045 C17.927,12.780 18.339,11.327 18.339,9.844 C18.339,5.320 14.595,1.630 10.000,1.630 ZM10.000,14.766 C7.206,14.766 5.000,12.540 5.000,9.844 C5.000,7.130 7.243,4.922 10.000,4.922 C12.757,4.922 15.000,7.130 15.000,9.844 C15.000,12.511 12.828,14.766 10.000,14.766 ZM10.000,6.552 C8.162,6.552 6.656,8.034 6.656,9.844 C6.656,11.657 8.152,13.136 10.000,13.136 C11.877,13.136 13.339,11.631 13.339,9.844 C13.339,8.034 11.838,6.552 10.000,6.552 Z" class="cls-1"/>
</svg>
