<?xml version="1.0" encoding="iso-8859-1"?>
<!-- Generator: Adobe Illustrator 19.0.0, SVG Export Plug-In . SVG Version: 6.00 Build 0)  -->
<svg version="1.1" id="&#x421;&#x43B;&#x43E;&#x439;_1"
	 xmlns="http://www.w3.org/2000/svg" xmlns:xlink="http://www.w3.org/1999/xlink" x="0px" y="0px" viewBox="0 0 288.775 71.424"
	 style="enable-background:new 0 0 288.775 71.424;" xml:space="preserve">
<g id="XMLID_5_">
	<linearGradient id="XMLID_367_" gradientUnits="userSpaceOnUse" x1="31.2463" y1="59.7197" x2="159.6398" y2="59.7197">
		<stop  offset="0" style="stop-color:#4893C2"/>
		<stop  offset="1" style="stop-color:#4A6C8F"/>
	</linearGradient>
	<path id="XMLID_8_" style="fill:url(#XMLID_367_);" d="M31.246,51.695c0,0,0.473-0.24,1.36-0.689
		c0.448-0.214,0.982-0.496,1.675-0.746c0.679-0.252,1.489-0.619,2.399-0.846c1.817-0.565,4.104-1.028,6.787-1.279
		c2.675-0.21,5.731-0.158,9,0.231c3.269,0.389,6.74,1.107,10.289,2.046c3.548,0.944,7.184,2.085,10.84,3.278
		c1.808,0.58,3.646,1.17,5.507,1.766c1.841,0.56,3.692,1.122,5.529,1.632c3.69,0.987,7.37,1.858,10.999,2.2
		c3.624,0.425,7.19,0.374,10.659-0.075c0.869-0.155,1.734-0.309,2.596-0.463c0.989-0.198,1.974-0.395,2.952-0.591
		c1.96-0.389,3.881-0.793,5.788-1.131c3.812-0.722,7.533-1.36,11.131-1.866c3.587-0.504,7.064-0.866,10.369-0.93
		c3.296-0.064,6.411,0.182,9.094,0.803c2.682,0.661,4.87,1.574,6.541,2.489c1.672,0.911,2.873,1.767,3.671,2.366
		c0.801,0.596,1.21,0.93,1.21,0.93s-0.519-0.106-1.492-0.305c-0.947-0.24-2.382-0.464-4.133-0.712
		c-1.761-0.224-3.867-0.328-6.2-0.176c-2.342,0.19-4.932,0.695-7.778,1.458c-2.844,0.744-5.953,1.742-9.286,2.834
		c-3.33,1.068-6.877,2.245-10.59,3.38c-1.854,0.593-3.757,1.139-5.671,1.696c-0.958,0.279-1.922,0.559-2.891,0.841
		c-1.076,0.269-2.228,0.531-3.352,0.781c-4.558,0.913-9.332,0.996-13.922,0.524c-4.599-0.519-8.989-1.62-13.075-3.005
		c-2.06-0.66-4.021-1.434-5.935-2.214c-1.908-0.78-3.759-1.571-5.536-2.399c-3.568-1.613-6.894-3.242-10.036-4.688
		c-3.138-1.455-6.087-2.745-8.855-3.772c-2.764-1.04-5.349-1.807-7.7-2.351c-2.349-0.504-4.463-0.803-6.237-0.93
		c-1.755-0.108-3.182-0.188-4.182-0.114C31.776,51.686,31.246,51.695,31.246,51.695z"/>
	<linearGradient id="XMLID_368_" gradientUnits="userSpaceOnUse" x1="8.477" y1="58.9321" x2="59.4368" y2="58.9321">
		<stop  offset="0" style="stop-color:#4C73A0"/>
		<stop  offset="1" style="stop-color:#425277"/>
	</linearGradient>
	<path id="XMLID_7_" style="fill:url(#XMLID_368_);" d="M59.437,63.261c0,0-0.823-0.173-2.227-0.557
		c-0.702-0.175-1.552-0.466-2.521-0.68c-0.971-0.225-2.052-0.483-3.208-0.795c-1.195-0.231-2.473-0.506-3.816-0.789
		c-1.366-0.196-2.769-0.531-4.252-0.696c-0.736-0.1-1.485-0.202-2.243-0.305c-0.76-0.071-1.53-0.143-2.305-0.215L37.7,59.109
		l-1.177-0.056c-0.786-0.035-1.573-0.101-2.363-0.113c-1.581-0.025-3.161-0.054-4.721,0.006c-1.56,0.01-3.096,0.144-4.589,0.22
		c-1.49,0.13-2.939,0.232-4.311,0.401c-1.379,0.122-2.678,0.319-3.894,0.441c-1.201,0.194-2.323,0.31-3.313,0.453
		c-0.984,0.163-1.863,0.247-2.579,0.353c-1.434,0.207-2.276,0.278-2.276,0.278s0.719-0.43,2.019-1.102
		c1.303-0.66,3.196-1.544,5.557-2.401c1.189-0.396,2.47-0.881,3.872-1.229c1.39-0.397,2.885-0.715,4.441-1.01
		c0.777-0.158,1.58-0.237,2.388-0.355c0.405-0.054,0.813-0.108,1.222-0.162c0.412-0.029,0.827-0.058,1.243-0.088
		c1.664-0.162,3.365-0.143,5.065-0.138c0.849,0.026,1.698,0.109,2.543,0.161c0.847,0.038,1.683,0.153,2.511,0.282
		c0.828,0.121,1.651,0.232,2.455,0.391c0.799,0.183,1.588,0.364,2.364,0.542c1.554,0.336,2.997,0.894,4.379,1.325
		c1.36,0.511,2.611,1.083,3.765,1.583c1.144,0.558,2.161,1.131,3.055,1.624c0.914,0.464,1.597,1.02,2.213,1.411
		C58.771,62.746,59.437,63.261,59.437,63.261z"/>
	
		<linearGradient id="XMLID_369_" gradientUnits="userSpaceOnUse" x1="51.4687" y1="47.2643" x2="153.047" y2="47.2643" gradientTransform="matrix(0.9998 -0.0182 0.0182 0.9998 1.3127 3.5498)">
		<stop  offset="0" style="stop-color:#9DD0E1"/>
		<stop  offset="1" style="stop-color:#54ADD2"/>
	</linearGradient>
	<path id="XMLID_6_" style="fill:url(#XMLID_369_);" d="M155.317,55.035c0,0-12.875-13.807-28.272-13.527
		c-15.397,0.28-17.001,4.96-32.429,5.241c-15.428,0.281-19.899-6.463-41.058-0.883c18.022,1.242,28.338,10,44.639,10.18
		C123.421,56.324,133.134,44.176,155.317,55.035z"/>
</g>
<g id="XMLID_1_">
	<path id="XMLID_42_" style="fill:#0F5C99;" d="M7.385,11.376v11.829h20.848v7.058H7.385v12.744h22.481v7.058H0V4.318h29.867v7.058
		H7.385z"/>
	<path id="XMLID_257_" style="fill:#0F5C99;" d="M96.136,4.318L83.981,50.065h-9.215l-4.379-16.534l-4.444-20.456h-1.176
		l-4.379,20.456L56.01,50.065h-9.28L34.574,4.318h7.581l5.816,21.894l3.464,16.142l3.464-16.142L60.65,4.318h9.411l5.751,21.894
		l3.529,16.208l3.463-16.208l5.752-21.894H96.136z"/>
	<path id="XMLID_259_" style="fill:#0F5C99;" d="M128.492,37.779h-19.867l-4.641,12.287h-7.842l17.71-45.748h9.411l17.711,45.748
		h-7.843L128.492,37.779z M125.812,30.786l-7.254-19.148l-7.255,19.148H125.812z"/>
</g>
<g id="XMLID_3_">
	<path id="XMLID_262_" style="fill:#53BBE2;" d="M177.633,4.825l-5.564,17.691h-1.126l-1.865-5.951l-3.409-10.743l-0.097-0.032
		l-3.409,10.743l-1.866,5.983h-1.094l-5.597-17.691h0.805l1.769,5.564l3.57,11.322l3.57-11.322l1.77-5.564h1.094l1.736,5.564
		l3.603,11.29l3.57-11.29l1.737-5.564H177.633z"/>
	<path id="XMLID_264_" style="fill:#53BBE2;" d="M197.154,4.825v17.691h-0.74v-4.954c-1.383,3.185-4.406,5.275-8.041,5.275
		c-5.05,0-8.492-3.892-8.492-9.167c0-5.275,3.442-9.167,8.492-9.167c3.635,0,6.658,2.091,8.041,5.275V4.825H197.154z M196.446,13.67
		c0-4.889-3.506-8.459-8.105-8.459s-7.72,3.603-7.72,8.459c0,4.857,3.12,8.46,7.72,8.46S196.446,18.559,196.446,13.67z"/>
	<path id="XMLID_267_" style="fill:#53BBE2;" d="M215.001,21.969c-0.9,0.386-2.541,0.869-4.246,0.869
		c-4.053,0-6.079-2.766-6.079-7.012V5.532h-3.667V4.825h3.667V0.161L205.417,0v4.825h9.359v0.708h-9.359v10.293
		c0,3.924,1.704,6.305,5.403,6.305c1.447,0,2.831-0.354,4.021-0.869L215.001,21.969z"/>
	<path id="XMLID_269_" style="fill:#53BBE2;" d="M233.719,18.206h0.804c-1.415,3.12-4.6,4.632-7.977,4.632
		c-5.179,0-8.975-3.57-8.975-9.071c0-5.436,3.731-9.264,8.846-9.264c5.372,0,8.62,3.828,8.62,9.489h-16.726
		c0.161,5.018,3.538,8.138,8.234,8.138C229.699,22.13,232.432,20.747,233.719,18.206z M218.312,13.284h15.986
		c-0.161-4.696-3.281-8.074-7.881-8.074C221.85,5.21,218.504,8.523,218.312,13.284z"/>
	<path id="XMLID_272_" style="fill:#53BBE2;" d="M248.576,4.567v0.708c-0.29-0.032-0.74-0.064-1.158-0.064
		c-4.471,0-7.141,3.57-7.141,8.459v8.846h-0.74V4.825h0.74v4.889c0.965-2.895,3.281-5.211,7.108-5.211
		C247.835,4.503,248.286,4.535,248.576,4.567z"/>
	<path id="XMLID_274_" style="fill:#53BBE2;" d="M153.767,44.463h0.739c0.869,3.506,3.699,5.115,7.495,5.115
		c3.185,0,6.079-1.351,6.079-4.214c0-2.541-2.316-2.927-6.337-3.989c-5.307-1.383-6.979-2.187-6.979-4.567
		c0-3.152,2.927-4.857,6.562-4.857c3.506,0,6.337,1.608,7.173,4.664h-0.739c-0.934-2.638-3.475-3.957-6.466-3.957
		c-3.185,0-5.79,1.512-5.79,4.117c0,2.22,1.931,2.702,6.627,3.924c4.503,1.158,6.69,1.833,6.69,4.632
		c0,3.345-3.152,4.954-6.787,4.954C157.53,50.286,154.506,48.227,153.767,44.463z"/>
	<path id="XMLID_276_" style="fill:#53BBE2;" d="M187.183,32.273l-12.352,25.732h-0.836l4.792-9.971l-7.559-15.761h0.836
		l7.142,14.893l7.141-14.893H187.183z"/>
	<path id="XMLID_278_" style="fill:#53BBE2;" d="M189.271,44.463h0.739c0.869,3.506,3.699,5.115,7.495,5.115
		c3.185,0,6.079-1.351,6.079-4.214c0-2.541-2.316-2.927-6.337-3.989c-5.307-1.383-6.979-2.187-6.979-4.567
		c0-3.152,2.927-4.857,6.562-4.857c3.506,0,6.337,1.608,7.173,4.664h-0.739c-0.934-2.638-3.475-3.957-6.466-3.957
		c-3.185,0-5.79,1.512-5.79,4.117c0,2.22,1.931,2.702,6.627,3.924c4.503,1.158,6.69,1.833,6.69,4.632
		c0,3.345-3.152,4.954-6.787,4.954C193.034,50.286,190.01,48.227,189.271,44.463z"/>
	<path id="XMLID_280_" style="fill:#53BBE2;" d="M220.725,49.417c-0.9,0.386-2.541,0.869-4.246,0.869
		c-4.053,0-6.079-2.766-6.079-7.012V32.98h-3.667v-0.708h3.667v-4.664l0.74-0.161v4.825h9.359v0.708h-9.359v10.293
		c0,3.924,1.704,6.305,5.403,6.305c1.447,0,2.831-0.354,4.021-0.869L220.725,49.417z"/>
	<path id="XMLID_282_" style="fill:#53BBE2;" d="M239.443,45.654h0.804c-1.415,3.12-4.6,4.632-7.977,4.632
		c-5.179,0-8.975-3.57-8.975-9.071c0-5.436,3.731-9.264,8.846-9.264c5.372,0,8.62,3.828,8.62,9.489h-16.726
		c0.16,5.018,3.538,8.138,8.234,8.138C235.422,49.578,238.156,48.195,239.443,45.654z M224.036,40.732h15.986
		c-0.161-4.696-3.281-8.074-7.881-8.074C227.574,32.659,224.228,35.972,224.036,40.732z"/>
	<path id="XMLID_285_" style="fill:#53BBE2;" d="M269.868,38.191v11.772h-0.74V38.191c0-3.764-1.865-5.533-4.921-5.533
		c-4.246,0-6.272,4.085-6.272,8.459l0.032,8.846h-0.772V38.191c0-3.764-1.865-5.533-4.921-5.533c-4.246,0-6.272,4.085-6.272,8.459
		l0.032,8.846h-0.772V32.273h0.772v4.728c0.965-2.959,2.734-5.05,6.24-5.05c3.377,0,5.307,1.801,5.629,5.211
		c0.933-3.023,2.702-5.211,6.305-5.211C267.873,31.951,269.868,34.106,269.868,38.191z"/>
	<path id="XMLID_287_" style="fill:#53BBE2;" d="M273.721,44.463h0.739c0.869,3.506,3.699,5.115,7.495,5.115
		c3.185,0,6.079-1.351,6.079-4.214c0-2.541-2.315-2.927-6.337-3.989c-5.307-1.383-6.979-2.187-6.979-4.567
		c0-3.152,2.927-4.857,6.562-4.857c3.506,0,6.337,1.608,7.173,4.664h-0.739c-0.934-2.638-3.475-3.957-6.466-3.957
		c-3.185,0-5.79,1.512-5.79,4.117c0,2.22,1.931,2.702,6.627,3.924c4.503,1.158,6.69,1.833,6.69,4.632
		c0,3.345-3.152,4.954-6.787,4.954C277.485,50.286,274.46,48.227,273.721,44.463z"/>
</g>
</svg>
