<svg xmlns="http://www.w3.org/2000/svg" xmlns:xlink="http://www.w3.org/1999/xlink" preserveAspectRatio="xMidYMid" width="16" height="15.97" viewBox="0 0 16 15.97">
  <defs>
    <style>
      .cls-1 {
        fill: #7b7b7b;
        fill-rule: evenodd;
      }
    </style>
  </defs>
  <path d="M15.639,12.630 L13.169,10.153 C12.677,9.662 11.862,9.676 11.353,10.187 L10.108,11.435 C10.029,11.391 9.948,11.346 9.863,11.298 C9.077,10.861 8.001,10.263 6.869,9.127 C5.734,7.989 5.137,6.908 4.700,6.120 C4.654,6.036 4.610,5.956 4.566,5.879 L5.401,5.043 L5.812,4.631 C6.322,4.119 6.336,3.302 5.845,2.809 L3.375,0.332 C2.884,-0.160 2.069,-0.145 1.559,0.366 L0.863,1.068 L0.882,1.087 C0.648,1.386 0.453,1.730 0.308,2.102 C0.174,2.456 0.091,2.793 0.053,3.131 C-0.273,5.843 0.962,8.321 4.316,11.684 C8.951,16.332 12.687,15.981 12.848,15.963 C13.199,15.922 13.535,15.837 13.877,15.704 C14.245,15.560 14.588,15.365 14.885,15.132 L14.901,15.145 L15.606,14.452 C16.115,13.941 16.129,13.124 15.639,12.630 Z" class="cls-1"/>
</svg>
