<svg xmlns="http://www.w3.org/2000/svg" xmlns:xlink="http://www.w3.org/1999/xlink" preserveAspectRatio="xMidYMid" width="16" height="11" viewBox="0 0 16 11">
  <defs>
    <style>
      .cls-1 {
        fill: #7b7b7b;
        fill-rule: evenodd;
      }
    </style>
  </defs>
  <path d="M10.606,5.582 L16.000,2.028 L16.000,8.992 L10.606,5.582 ZM0.030,0.851 C0.105,0.372 0.501,-0.000 1.000,-0.000 L15.000,-0.000 C15.499,-0.000 15.895,0.372 15.970,0.851 L8.000,6.102 L0.030,0.851 ZM-0.000,8.992 L-0.000,2.028 L5.394,5.582 L-0.000,8.992 ZM7.725,7.118 C7.809,7.173 7.904,7.200 8.000,7.200 C8.096,7.200 8.191,7.173 8.275,7.118 L9.690,6.186 L15.968,10.156 C15.891,10.631 15.497,11.000 15.000,11.000 L1.000,11.000 C0.503,11.000 0.109,10.631 0.032,10.156 L6.310,6.185 L7.725,7.118 Z" class="cls-1"/>
</svg>
