<?xml version="1.0" encoding="utf-8"?>
<!-- Generator: Adobe Illustrator 19.0.0, SVG Export Plug-In . SVG Version: 6.00 Build 0)  -->
<svg version="1.1" id="Layer_1" xmlns="http://www.w3.org/2000/svg" xmlns:xlink="http://www.w3.org/1999/xlink" x="0px" y="0px"
	 viewBox="0 0 61.9 75.8" style="enable-background:new 0 0 61.9 75.8;" width="235" height="289" xml:space="preserve">
<style type="text/css">
	.st0{opacity:0.3;}
	.st1{fill:#517FA2;}
	.st2{fill:#A6A6A6;}
	.st3{fill:#575757;}
	.st4{fill:#808080;}
	.st5{fill:#E7EDF8;}
	.st6{fill:#B2C4DA;}
	.st7{fill:#C2D2ED;}
	.st8{fill:#659EC9;}
	.st9{fill:#FFFFFF;}
	.st10{opacity:0.1;}
</style>
<g>
	<polygon class="st0" points="51.5,75.8 13.6,53.9 24,48 61.9,69.8 	"/>
	<path class="st1" d="M16.2,18.5c-2.6-1-3.8-3.3-4-5.3c-0.2-1.9,0.4-3.6,1.7-4.4c1-0.6,2.7-1.1,5.5,0.5l-0.4,0.8
		C17,9,15.5,8.8,14.4,9.5c-1,0.6-1.5,2-1.3,3.6c0.2,1.7,1.2,3.7,3.4,4.5L16.2,18.5z"/>
	<g>
		<g>
			<path class="st2" d="M4.9,22.8l-0.3,0.5c-0.1,0.3-0.3,0.7-0.5,0.9l-0.3,0.5l-3.6-2.1l0,0C0.1,22.6,0,22.4,0,22.1
				c0-0.5,0.4-1.1,0.8-1.4c0.2-0.1,0.4-0.1,0.6-0.1l0,0L4.9,22.8z"/>
			<path class="st3" d="M4.4,22.8c-0.4,0.3-0.8,0.9-0.8,1.4c0,0.5,0.4,0.7,0.8,0.5c0.4-0.3,0.8-0.9,0.8-1.4
				C5.2,22.8,4.8,22.6,4.4,22.8z"/>
			<path class="st4" d="M4.4,23.1c-0.3,0.2-0.5,0.6-0.5,0.9c0,0.3,0.2,0.5,0.5,0.3c0.3-0.2,0.5-0.6,0.5-0.9
				C4.9,23.1,4.7,23,4.4,23.1z"/>
			<path class="st3" d="M4.4,23.3C4.4,23.3,4.4,23.3,4.4,23.3c0,0.2-0.2,0.5-0.4,0.6c0,0,0,0,0,0c0,0.2,0.2,0.3,0.4,0.2
				c0.2-0.1,0.4-0.4,0.4-0.6C4.7,23.3,4.6,23.2,4.4,23.3z"/>
			<path d="M4.4,23.3C4.4,23.3,4.4,23.3,4.4,23.3C4.2,23.4,4,23.7,4,23.9c0,0,0,0,0,0c0,0,0,0,0,0C4.2,23.8,4.4,23.6,4.4,23.3
				C4.4,23.3,4.4,23.3,4.4,23.3z"/>
		</g>
		<g>
			<path class="st4" d="M3.1,20.5H2.6c-0.3-0.1-0.6-0.1-0.8,0H1.2v1.4l0,0c0,0.1,0.1,0.3,0.3,0.4c0.4,0.2,1,0.2,1.3,0
				C3,22.2,3.1,22,3.1,21.9l0,0V20.5z"/>
			<path class="st2" d="M2.8,20.8c-0.4,0.2-1,0.2-1.3,0c-0.4-0.2-0.4-0.5,0-0.8c0.4-0.2,1-0.2,1.3,0C3.2,20.3,3.2,20.6,2.8,20.8z"/>
			<path class="st4" d="M2.6,20.7c-0.3,0.1-0.7,0.1-0.9,0c-0.3-0.1-0.3-0.4,0-0.5c0.3-0.1,0.7-0.1,0.9,0C2.9,20.3,2.9,20.6,2.6,20.7
				z"/>
			<path class="st3" d="M2.5,20.6C2.5,20.6,2.5,20.6,2.5,20.6c-0.2-0.1-0.5-0.1-0.6,0c0,0,0,0,0,0c-0.2-0.1-0.2-0.3,0-0.4
				c0.2-0.1,0.4-0.1,0.6,0C2.6,20.4,2.6,20.5,2.5,20.6z"/>
			<path d="M2.5,20.6C2.5,20.6,2.5,20.6,2.5,20.6c-0.2,0.1-0.5,0.1-0.6,0c0,0,0,0,0,0c0,0,0,0,0,0C2,20.5,2.3,20.5,2.5,20.6
				C2.5,20.6,2.5,20.6,2.5,20.6z"/>
		</g>
	</g>
	<path class="st1" d="M6.7,3.6c-4.4,3-5,10.6-5,16.9c0,0,0,0,0,0v0c0,0.1,0,0.1,0.1,0.2c0,0,0,0,0,0c0.2,0.1,0.4,0.1,0.6,0
		c0,0,0,0,0,0c0.1,0,0.1-0.1,0.1-0.2l0,0v0c0-6.1,0.5-13.4,4.6-16.1c2.1-1.4,5.1-1.4,8.8,0l0.3-0.8C12.2,2,9,2,6.7,3.6z"/>
	<g>
		<g>
			<path class="st5" d="M32.2,28.1h-3.6c-1.9-0.5-4.1-0.5-5.9,0h-3.6v26l0,0c0,1,0.6,1.9,1.9,2.7c2.6,1.5,6.7,1.5,9.3,0
				c1.3-0.7,1.9-1.7,1.9-2.7l0,0V28.1z"/>
			<path class="st6" d="M30,41.3c-2.5,1.3-6.2,1.3-8.7,0v7.5c2.5,1.3,6.2,1.3,8.7,0V41.3z"/>
			<path class="st7" d="M28.6,28.1c-0.9-0.3-2-0.4-3-0.4c-1,0-2,0.1-3,0.4h-3.6v3.1c0.3,0.4,0.8,0.8,1.4,1.1c2.9,1.6,7.5,1.6,10.3,0
				c0.6-0.3,1-0.7,1.4-1.1v-3.1H28.6z"/>
			<path class="st8" d="M30.3,30.8c-2.6,1.5-6.7,1.5-9.3,0c-2.6-1.5-2.6-3.9,0-5.3c2.6-1.5,6.7-1.5,9.3,0
				C32.9,26.9,32.9,29.3,30.3,30.8z"/>
		</g>
		<g>
			<polygon class="st7" points="31.2,57.5 30.9,57.7 30.8,57.3 30.6,57.2 30.6,31.4 30.3,30.9 30.6,30.7 31.2,31 			"/>
			<polygon class="st9" points="30.9,57.7 29.9,57.1 30.3,56.8 30.3,30.9 30.9,31.2 			"/>
		</g>
		<g>
			<polygon class="st9" points="20.2,57.5 20.5,57.7 20.6,57.3 20.8,57.2 20.8,31.4 21,30.9 20.8,30.7 20.2,31 			"/>
			<polygon class="st7" points="20.5,57.7 21.5,57.1 21,56.8 21,30.9 20.5,31.2 			"/>
		</g>
		<g>
			<path class="st5" d="M33,23.2h-4c-2.1-0.6-4.6-0.6-6.6,0h-4v5.3l0,0c0,1.1,0.7,2.2,2.1,3c2.9,1.6,7.5,1.6,10.3,0
				c1.4-0.8,2.1-1.9,2.1-3l0,0V23.2z"/>
			<path class="st7" d="M33,24.5H18.4v0.2l0,0c0,1.1,0.7,2.2,2.1,3c2.9,1.6,7.5,1.6,10.3,0c1.4-0.8,2.1-1.9,2.1-3l0,0V24.5z"/>
			<path class="st9" d="M30.8,26.2c-2.9,1.6-7.5,1.6-10.3,0c-2.9-1.6-2.9-4.3,0-6c2.9-1.6,7.5-1.6,10.3,0
				C33.7,21.9,33.7,24.6,30.8,26.2z"/>
		</g>
	</g>
	<g>
		<g>
			<path class="st5" d="M43.7,34.8h-3.6c-1.9-0.5-4.1-0.5-5.9,0h-3.6v26l0,0c0,1,0.6,1.9,1.9,2.7c2.6,1.5,6.7,1.5,9.3,0
				c1.3-0.7,1.9-1.7,1.9-2.7l0,0V34.8z"/>
			<path class="st6" d="M41.5,48c-2.5,1.3-6.2,1.3-8.7,0v7.5c2.5,1.3,6.2,1.3,8.7,0V48z"/>
			<path class="st7" d="M40.1,34.8c-0.9-0.3-1.9-0.4-3-0.4c-1,0-2,0.1-3,0.4h-3.6v3.1c0.3,0.4,0.8,0.8,1.4,1.1
				c2.9,1.6,7.5,1.6,10.3,0c0.6-0.3,1-0.7,1.4-1.1v-3.2H40.1z"/>
			<path class="st8" d="M41.8,37.4c-2.6,1.5-6.7,1.5-9.3,0c-2.6-1.5-2.6-3.9,0-5.3c2.6-1.5,6.7-1.5,9.3,0
				C44.3,33.6,44.3,36,41.8,37.4z"/>
		</g>
		<g>
			<polygon class="st7" points="42.7,64.1 42.4,64.3 42.2,63.9 42.1,63.8 42.1,38.1 41.8,37.5 42.1,37.3 42.7,37.7 			"/>
			<polygon class="st9" points="42.4,64.3 41.3,63.7 41.8,63.5 41.8,37.5 42.4,37.8 			"/>
		</g>
		<g>
			<polygon class="st9" points="31.7,64.1 31.9,64.3 32.1,63.9 32.2,63.8 32.2,38.1 32.5,37.5 32.2,37.3 31.7,37.7 			"/>
			<polygon class="st7" points="31.9,64.3 33,63.7 32.5,63.5 32.5,37.5 31.9,37.8 			"/>
		</g>
		<g>
			<path class="st5" d="M44.5,29.9h-4c-2.1-0.6-4.6-0.6-6.6,0h-4v5.3l0,0c0,1.1,0.7,2.2,2.1,3c2.9,1.6,7.5,1.6,10.3,0
				c1.4-0.8,2.1-1.9,2.1-3l0,0V29.9z"/>
			<path class="st7" d="M44.5,31.2H29.8v0.2l0,0c0,1.1,0.7,2.2,2.1,3c2.9,1.6,7.5,1.6,10.3,0c1.4-0.8,2.1-1.9,2.1-3l0,0V31.2z"/>
			<path class="st9" d="M42.3,32.9c-2.9,1.6-7.5,1.6-10.3,0c-2.9-1.6-2.9-4.3,0-6c2.9-1.6,7.5-1.6,10.3,0
				C45.2,28.5,45.2,31.2,42.3,32.9z"/>
		</g>
	</g>
	<g>
		<g>
			<path class="st5" d="M55.2,41.4h-3.6c-1.9-0.5-4.1-0.5-5.9,0h-3.6v26l0,0c0,1,0.6,1.9,1.9,2.7c2.6,1.5,6.7,1.5,9.3,0
				c1.3-0.7,1.9-1.7,1.9-2.7l0,0V41.4z"/>
			<path class="st6" d="M53,54.6c-2.5,1.3-6.2,1.3-8.7,0v7.5c2.5,1.3,6.2,1.3,8.7,0V54.6z"/>
			<path class="st7" d="M51.6,41.4c-0.9-0.3-2-0.4-3-0.4c-1,0-2,0.1-3,0.4h-3.6v3.1c0.3,0.4,0.8,0.8,1.4,1.1c2.9,1.6,7.5,1.6,10.3,0
				c0.6-0.3,1-0.7,1.4-1.1v-3.2H51.6z"/>
			<path class="st8" d="M53.3,44.1c-2.6,1.5-6.7,1.5-9.3,0c-2.6-1.5-2.6-3.9,0-5.3c2.6-1.5,6.7-1.5,9.3,0
				C55.8,40.2,55.8,42.6,53.3,44.1z"/>
		</g>
		<g>
			<polygon class="st7" points="54.1,70.8 53.8,70.9 53.7,70.5 53.5,70.4 53.5,44.7 53.3,44.1 53.5,44 54.1,44.3 			"/>
			<polygon class="st9" points="53.8,70.9 52.8,70.3 53.3,70.1 53.3,44.1 53.8,44.5 			"/>
		</g>
		<g>
			<polygon class="st9" points="43.1,70.8 43.4,70.9 43.5,70.5 43.7,70.4 43.7,44.7 44,44.1 43.7,44 43.1,44.3 			"/>
			<polygon class="st7" points="43.4,70.9 44.4,70.3 44,70.1 44,44.1 43.4,44.5 			"/>
		</g>
		<g>
			<path class="st5" d="M55.9,36.5h-4c-2.1-0.6-4.6-0.6-6.6,0h-4v5.3l0,0c0,1.1,0.7,2.2,2.1,3c2.9,1.6,7.5,1.6,10.3,0
				c1.4-0.8,2.1-1.9,2.1-3l0,0V36.5z"/>
			<path class="st7" d="M55.9,37.8H41.3V38l0,0c0,1.1,0.7,2.2,2.1,3c2.9,1.6,7.5,1.6,10.3,0c1.4-0.8,2.1-1.9,2.1-3l0,0V37.8z"/>
			<path class="st9" d="M53.8,39.5c-2.9,1.6-7.5,1.6-10.3,0c-2.9-1.6-2.9-4.3,0-6c2.9-1.6,7.5-1.6,10.3,0
				C56.7,35.2,56.7,37.8,53.8,39.5z"/>
		</g>
	</g>
	<g>
		<polygon class="st9" points="51.5,39.8 13.6,18 24,12 61.9,33.9 		"/>
		<polygon class="st10" points="22.2,13.1 15.5,16.9 53.4,38.8 60.1,34.9 		"/>
		<polygon class="st5" points="51.5,44.1 13.6,22.3 13.6,18 51.5,39.8 		"/>
		<path class="st8" d="M51.5,44.1L13.6,22.3V18c5.8,10.4,30.3,16,37.9,24.7C51.5,43.3,51.5,44.1,51.5,44.1z"/>
		<polygon class="st7" points="51.5,44.1 61.9,38.1 61.9,33.9 51.5,39.8 		"/>
	</g>
	<g>
		<g>
			<path class="st5" d="M25.8,6.3l-1.6,2.8c-0.4,1.7-1.4,3.5-2.7,4.7l-1.6,2.8l-3-1.7l0,0c-0.8-0.4-1.2-1.4-1.2-2.7
				c0-2.7,1.9-5.9,4.2-7.3c1.2-0.7,2.2-0.7,3-0.3l0,0L25.8,6.3z"/>
			<path class="st7" d="M22.8,6.6c-2.3,1.3-4.2,4.6-4.2,7.3c0,2.7,1.9,3.8,4.2,2.4C25.2,15,27,11.7,27,9C27,6.4,25.2,5.3,22.8,6.6z"
				/>
		</g>
		<g>
			<polygon class="st9" points="24.3,18.7 22.5,17.7 30.4,13.1 32.2,14.1 			"/>
			<polygon class="st5" points="24.3,22 22.5,20.9 22.5,17.7 24.3,18.7 			"/>
			<polygon class="st7" points="24.3,22 32.2,17.4 32.2,14.1 24.3,18.7 			"/>
		</g>
		<g>
			<polygon class="st9" points="41.9,28.9 40.1,27.8 48,23.3 49.8,24.3 			"/>
			<polygon class="st5" points="41.9,32.2 40.1,31.1 40.1,27.8 41.9,28.9 			"/>
			<polygon class="st7" points="41.9,32.2 49.8,27.6 49.8,24.3 41.9,28.9 			"/>
		</g>
		<g>
			<path class="st5" d="M52,21.9l-1.5,2.6c-0.4,1.6-1.3,3.2-2.5,4.4l-1.5,2.6L20.3,16.4l0,0c-0.7-0.4-1.1-1.3-1.1-2.5
				c0-2.5,1.8-5.5,3.9-6.8c1.1-0.6,2.1-0.7,2.8-0.3l0,0L52,21.9z"/>
			<path class="st7" d="M50.5,24.5c-0.2,0.8-0.5,1.6-1,2.4c-0.4,0.7-1,1.4-1.6,2l-1.5,2.6l-3-1.8c-0.1-0.4-0.1-0.8-0.1-1.2
				c0-2.9,2-6.4,4.6-7.9c0.4-0.2,0.8-0.4,1.1-0.5l3,1.8L50.5,24.5z"/>
			<path class="st8" d="M49.2,22.1c-2.2,1.3-3.9,4.3-3.9,6.8c0,2.5,1.8,3.5,3.9,2.3c2.2-1.3,3.9-4.3,3.9-6.8
				C53.1,21.9,51.4,20.9,49.2,22.1z"/>
		</g>
		<g>
			<path class="st5" d="M57,23.7l-1.8,3c-0.5,1.9-1.5,3.7-2.9,5.1l-1.8,3.1l-5.1-3l0,0c-0.8-0.5-1.3-1.5-1.3-3c0-2.9,2-6.4,4.6-7.9
				c1.3-0.7,2.4-0.8,3.2-0.3l0,0L57,23.7z"/>
			<path class="st7" d="M53.8,24.1c-2.5,1.5-4.6,5-4.6,7.9c0,2.9,2,4.1,4.6,2.6c2.5-1.5,4.6-5,4.6-7.9
				C58.3,23.8,56.3,22.6,53.8,24.1z"/>
		</g>
		<g>
			<path class="st5" d="M58.1,26.6l-1.2,2.1c-0.3,1.3-1.1,2.6-2,3.5l-1.2,2.1l-1.8-1.1l0,0c-0.6-0.3-0.9-1-0.9-2
				c0-2,1.4-4.5,3.2-5.5c0.9-0.5,1.7-0.6,2.2-0.2l0,0L58.1,26.6z"/>
			<path class="st7" d="M55.9,26.9c-1.7,1-3.2,3.5-3.2,5.5c0,2,1.4,2.8,3.2,1.8c1.7-1,3.2-3.5,3.2-5.5C59,26.7,57.6,25.9,55.9,26.9z
				"/>
			<path class="st1" d="M55.9,29.4c-0.5,0.3-1,1.1-1,1.7c0,0.6,0.4,0.9,1,0.6c0.5-0.3,1-1.1,1-1.7S56.4,29.1,55.9,29.4z"/>
		</g>
		<g>
			<path class="st5" d="M58.7,30.8l-0.3,0.6c-0.1,0.4-0.3,0.7-0.6,1l-0.3,0.6l-2.3-1.3l0,0C55.1,31.5,55,31.3,55,31
				c0-0.6,0.4-1.2,0.9-1.5c0.2-0.1,0.5-0.2,0.6-0.1l0,0L58.7,30.8z"/>
			<path class="st7" d="M58.1,30.8c-0.5,0.3-0.9,1-0.9,1.5c0,0.6,0.4,0.8,0.9,0.5c0.5-0.3,0.9-1,0.9-1.5
				C59,30.8,58.6,30.5,58.1,30.8z"/>
			<path class="st4" d="M58.1,31.1c-0.3,0.2-0.6,0.7-0.6,1.1c0,0.4,0.3,0.5,0.6,0.4c0.3-0.2,0.6-0.7,0.6-1.1
				C58.7,31.1,58.5,30.9,58.1,31.1z"/>
			<path class="st3" d="M58.1,31.3C58.1,31.3,58.1,31.4,58.1,31.3c0,0.3-0.2,0.6-0.4,0.7c0,0,0,0,0,0c0,0.3,0.2,0.4,0.4,0.2
				c0.2-0.1,0.4-0.4,0.4-0.7C58.5,31.3,58.4,31.2,58.1,31.3z"/>
			<path d="M58.1,31.3C58.1,31.3,58.1,31.3,58.1,31.3c-0.2,0.1-0.4,0.5-0.4,0.7c0,0,0,0,0,0c0,0,0,0,0,0
				C58,31.9,58.1,31.6,58.1,31.3C58.1,31.4,58.1,31.3,58.1,31.3z"/>
		</g>
	</g>
	<g>
		<g>
			<path class="st9" d="M21.2,1.5L20,3.7c-0.3,1.3-1.1,2.7-2.1,3.6l-1.3,2.2l-2.3-1.3l0,0c-0.6-0.3-0.9-1.1-0.9-2.1
				c0-2.1,1.5-4.6,3.2-5.6c0.9-0.5,1.7-0.6,2.3-0.2l0,0L21.2,1.5z"/>
			<path class="st7" d="M18.9,1.8c-1.8,1-3.2,3.5-3.2,5.6c0,2.1,1.4,2.9,3.2,1.9c1.8-1,3.2-3.5,3.2-5.6C22.2,1.6,20.7,0.7,18.9,1.8z
				"/>
		</g>
		<g>
			<path class="st9" d="M43.9,14.9l-1.2,2c-0.3,1.2-1,2.5-1.9,3.4l-1.2,2L16.9,9.3l0,0c-0.5-0.3-0.9-1-0.9-2c0-1.9,1.4-4.3,3-5.2
				c0.8-0.5,1.6-0.5,2.1-0.2l0,0L43.9,14.9z"/>
			<path class="st7" d="M42.7,17c-0.1,0.6-0.4,1.2-0.7,1.8c-0.3,0.6-0.7,1.1-1.2,1.5l-1.2,2L37.2,21c-0.1-0.3-0.1-0.6-0.1-1
				c0-2.2,1.6-5,3.5-6.1c0.3-0.2,0.6-0.3,0.9-0.4l2.3,1.4L42.7,17z"/>
			<path class="st8" d="M41.7,15.2c-1.7,1-3,3.3-3,5.2c0,1.9,1.4,2.7,3,1.7c1.7-1,3-3.3,3-5.2C44.7,15,43.4,14.2,41.7,15.2z"/>
		</g>
		<g>
			<path class="st9" d="M47.7,16.4l-1.4,2.3c-0.3,1.4-1.2,2.9-2.3,3.9L42.8,25l-4-2.3l0,0c-0.6-0.4-1-1.2-1-2.3c0-2.2,1.6-5,3.5-6.1
				c1-0.6,1.8-0.6,2.5-0.2l0,0L47.7,16.4z"/>
			<path class="st7" d="M45.2,16.6c-1.9,1.1-3.5,3.8-3.5,6.1c0,2.2,1.6,3.1,3.5,2c1.9-1.1,3.5-3.8,3.5-6.1
				C48.8,16.4,47.2,15.5,45.2,16.6z"/>
		</g>
		<g>
			<path class="st9" d="M48.6,18.6l-0.9,1.6c-0.2,1-0.8,2-1.6,2.7l-0.9,1.6l-1.4-0.8l0,0C43.3,23.5,43,23,43,22.2
				c0-1.6,1.1-3.4,2.4-4.2c0.7-0.4,1.3-0.4,1.7-0.2l0,0L48.6,18.6z"/>
			<path class="st7" d="M46.8,18.8c-1.3,0.8-2.4,2.7-2.4,4.2c0,1.6,1.1,2.2,2.4,1.4c1.3-0.8,2.4-2.7,2.4-4.2
				C49.3,18.7,48.2,18,46.8,18.8z"/>
		</g>
		<g>
			<path class="st1" d="M46.9,20.5c-0.5,0.3-1,1.1-1,1.7c0,0.6,0.4,0.9,1,0.6c0.5-0.3,1-1.1,1-1.7C47.8,20.4,47.4,20.2,46.9,20.5z"
				/>
			<path class="st9" d="M49.7,21.9l-0.3,0.6c-0.1,0.4-0.3,0.7-0.6,1L48.5,24l-2.3-1.3l0,0c-0.2-0.1-0.3-0.3-0.3-0.6
				c0-0.6,0.4-1.2,0.9-1.5c0.2-0.1,0.5-0.2,0.6-0.1l0,0L49.7,21.9z"/>
			<path class="st7" d="M49.1,21.9c-0.5,0.3-0.9,1-0.9,1.5c0,0.6,0.4,0.8,0.9,0.5c0.5-0.3,0.9-1,0.9-1.5
				C50,21.9,49.6,21.7,49.1,21.9z"/>
			<path class="st4" d="M49.1,22.2c-0.3,0.2-0.6,0.7-0.6,1.1c0,0.4,0.3,0.5,0.6,0.4c0.3-0.2,0.6-0.7,0.6-1.1
				C49.7,22.2,49.5,22.1,49.1,22.2z"/>
			<path class="st3" d="M49.1,22.5C49.1,22.5,49.1,22.5,49.1,22.5c0,0.3-0.2,0.6-0.4,0.7c0,0,0,0,0,0c0,0.3,0.2,0.4,0.4,0.2
				c0.2-0.1,0.4-0.5,0.4-0.7C49.5,22.5,49.4,22.3,49.1,22.5z"/>
			<path d="M49.1,22.5C49.1,22.5,49.1,22.5,49.1,22.5c-0.2,0.1-0.4,0.5-0.4,0.7c0,0,0,0,0,0c0,0,0,0,0,0
				C48.9,23.1,49.1,22.7,49.1,22.5C49.1,22.5,49.1,22.5,49.1,22.5z"/>
		</g>
	</g>
	<path class="st1" d="M59.5,25.4c-2-1.5-4.1-1.6-6-1.8c-1.6-0.1-3-0.2-4-1.1c-0.1-0.1-0.2-0.1-0.3,0c0,0,0,0,0,0
		c-0.2,0.1-0.4,0.5-0.4,0.7c0,0,0,0,0,0c0,0.1,0,0.2,0.1,0.2l0,0c1.3,1.1,2.9,1.1,4.6,1.2c1.8,0.1,3.7,0.2,5.5,1.6
		c1.2,0.9,2,2.8,1.6,3.9c-0.3,0.8-0.8,1.2-2.1,1.2l0,0c-0.1,0-0.1,0-0.2,0c0,0,0,0,0,0c-0.2,0.1-0.4,0.5-0.4,0.7c0,0,0,0,0,0
		c0,0.2,0.1,0.3,0.2,0.3v0c0,0,0,0,0,0c0,0,0,0,0,0c2.3,0,3.2-1.2,3.5-1.9C62,28.7,60.9,26.4,59.5,25.4z"/>
</g>
</svg>
