<?xml version="1.0" encoding="utf-8"?>
<!-- Generator: Adobe Illustrator 19.0.0, SVG Export Plug-In . SVG Version: 6.00 Build 0)  -->
<svg version="1.1" id="Layer_1" xmlns="http://www.w3.org/2000/svg" xmlns:xlink="http://www.w3.org/1999/xlink" x="0px" y="0px"
	 viewBox="0 0 62.5 77.1" style="enable-background:new 0 0 62.5 77.1;" width="234" height="289" xml:space="preserve">
<style type="text/css">
	.st0{opacity:0.3;}
	.st1{fill:#A6A6A6;}
	.st2{fill:#808080;}
	.st3{fill:#575757;}
	.st4{opacity:0.5;}
	.st5{fill:#517FA2;}
	.st6{opacity:0.2;}
	.st7{fill:#E7EDF8;}
	.st8{fill:#6D6D6D;}
</style>
<g>
	<g>
		<g class="st0">
			<path d="M61.6,49c0.4,0.2,0.4,0.6,0,0.8L14.5,76.9c-0.4,0.2-1,0.2-1.4,0l-0.8-0.4c-0.4-0.2-0.4-0.6,0-0.8l47.1-27.2
				c0.4-0.2,1-0.2,1.4,0L61.6,49z"/>
		</g>
		<g>
			<polygon class="st1" points="22.3,69.9 21.2,69.3 25.8,66.6 26.9,67.2 			"/>
			<polygon class="st2" points="22.3,71.8 21.2,71.2 21.2,69.3 22.3,69.9 			"/>
			<polygon class="st3" points="22.3,71.8 26.9,69.1 26.9,67.2 22.3,69.9 			"/>
			<polygon class="st4" points="22.3,70.8 26.9,68.2 26.9,67.2 22.3,69.9 			"/>
		</g>
		<g>
			<polygon class="st1" points="38,60.8 36.9,60.2 41.6,57.5 42.6,58.1 			"/>
			<polygon class="st2" points="38,62.7 36.9,62.1 36.9,60.2 38,60.8 			"/>
			<polygon class="st3" points="38,62.7 42.6,60 42.6,58.1 38,60.8 			"/>
			<polygon class="st4" points="38,61.8 42.6,59.1 42.6,58.1 38,60.8 			"/>
		</g>
		<g>
			<polygon class="st1" points="53.8,51.7 52.8,51 57.4,48.4 58.5,49 			"/>
			<polygon class="st2" points="53.8,53.6 52.8,53 52.8,51 53.8,51.7 			"/>
			<polygon class="st3" points="53.8,53.6 58.5,50.9 58.5,49 53.8,51.7 			"/>
			<polygon class="st4" points="53.8,52.6 58.5,49.9 58.5,49 53.8,51.7 			"/>
		</g>
		<g>
			<path class="st3" d="M62.5,47.3c0-1-0.7-2.1-1.5-2.6c-0.4-0.2-0.8-0.3-1.1-0.1l0,0L59.2,45l0.2,0.4c0,0.1,0,0.1,0,0.2
				c0,1,0.7,2.1,1.5,2.6c0.1,0,0.1,0.1,0.2,0.1l0.2,0.4l0.7-0.4c0,0,0,0,0,0l0,0v0C62.3,48.1,62.5,47.8,62.5,47.3z"/>
			<path class="st2" d="M61.8,47.7c0,1-0.7,1.4-1.5,0.9c-0.8-0.5-1.5-1.7-1.5-2.6c0-1,0.7-1.4,1.5-0.9
				C61.1,45.6,61.8,46.8,61.8,47.7z"/>
		</g>
		<g>
			<path class="st3" d="M61.2,47.5c0-0.7-0.5-1.4-1-1.8c-0.3-0.2-0.5-0.2-0.7-0.1l0,0l0,0c0,0,0,0,0,0L13,72.5l1.5,2.5l46.4-26.8
				c0,0,0,0,0,0l0,0l0,0C61.1,48.1,61.2,47.8,61.2,47.5z"/>
			<path d="M14.7,74.3c0,0.7-0.5,0.9-1,0.6c-0.6-0.3-1-1.1-1-1.8c0-0.7,0.5-0.9,1-0.6C14.3,72.9,14.7,73.7,14.7,74.3z"/>
		</g>
		<g>
			<path class="st3" d="M15.2,74.6c0-1-0.7-2.1-1.5-2.6c-0.4-0.2-0.8-0.3-1.1-0.1l0,0l-0.7,0.4l0.2,0.4c0,0.1,0,0.1,0,0.2
				c0,1,0.7,2.1,1.5,2.6c0.1,0,0.1,0.1,0.2,0.1l0.2,0.4l0.7-0.4c0,0,0,0,0,0l0,0h0C15.1,75.4,15.2,75.1,15.2,74.6z"/>
			<path class="st2" d="M14.6,75c0,1-0.7,1.4-1.5,0.9c-0.8-0.5-1.5-1.7-1.5-2.6c0-1,0.7-1.4,1.5-0.9C13.9,72.9,14.6,74,14.6,75z"/>
			<path class="st3" d="M14,75.1c-0.1,0.4-0.5,0.5-1,0.2c-0.6-0.3-1-1.1-1-1.8c0-0.5,0.3-0.8,0.7-0.7c0,0.1-0.1,0.2-0.1,0.4
				c0,0.7,0.5,1.4,1,1.8C13.7,75,13.9,75.1,14,75.1z"/>
			<path d="M14.1,74.7c0,0.2,0,0.3-0.1,0.4c-0.1,0-0.2-0.1-0.4-0.1c-0.6-0.3-1-1.1-1-1.8c0-0.2,0-0.3,0.1-0.4c0.1,0,0.2,0.1,0.4,0.1
				C13.6,73.3,14.1,74.1,14.1,74.7z"/>
		</g>
	</g>
	<g>
		<path class="st0" d="M49,50.5c-4,2.3-10.4,2.3-14.4,0c-4-2.3-4-6,0-8.3c4-2.3,10.4-2.3,14.4,0C52.9,44.5,52.9,48.3,49,50.5z"/>
		<path class="st5" d="M51.2,41.3H32.3V46l0,0c0,1.4,0.9,2.8,2.8,3.9c3.7,2.1,9.7,2.1,13.4,0c1.8-1.1,2.8-2.5,2.8-3.9l0,0V41.3z"/>
		<path class="st6" d="M37.4,41.3h-5.1V46c0,1.4,0.9,2.8,2.8,3.9c0.7,0.4,1.5,0.7,2.4,1V41.3z"/>
		<path class="st7" d="M51.6,18.2c0-4.8-4.4-8.7-9.9-8.7c-5.5,0-9.9,3.9-9.9,8.7v22.9l0,0c0,1.5,1,2.9,2.9,4c3.9,2.2,10.1,2.2,14,0
			c1.9-1.1,2.9-2.6,2.9-4l0,0V18.2z"/>
		<g class="st6">
			<path class="st8" d="M34.8,45.1c0.6,0.4,1.4,0.7,2.1,0.9V26.5c0-3.3-2-6.1-5-7.6v22.3C31.9,42.6,32.9,44,34.8,45.1z"/>
		</g>
		<g>
			<path class="st3" d="M44.2,10.6h-1.3c-0.7-0.2-1.5-0.2-2.2,0h-1.3v2.2l0,0c0,0.4,0.2,0.7,0.7,1c0.9,0.5,2.5,0.5,3.4,0
				c0.5-0.3,0.7-0.6,0.7-1l0,0V10.6z"/>
			<path class="st1" d="M43.5,11.6c-0.9,0.5-2.5,0.5-3.4,0c-0.9-0.5-0.9-1.4,0-2c0.9-0.5,2.5-0.5,3.4,0
				C44.4,10.2,44.4,11.1,43.5,11.6z"/>
			<path class="st2" d="M43,11.3c-0.7,0.4-1.7,0.4-2.4,0c-0.7-0.4-0.7-1,0-1.4c0.7-0.4,1.7-0.4,2.4,0C43.6,10.3,43.6,10.9,43,11.3z"
				/>
			<path d="M42.6,10.2c-0.4-0.3-1.2-0.3-1.6,0c-0.4,0.2-0.4,0.7,0,0.9c0,0,0,0,0,0c0.4,0.3,1.2,0.3,1.6,0c0,0,0,0,0,0
				C43,10.8,43,10.4,42.6,10.2z"/>
		</g>
		<path class="st3" d="M45.2,0.5c-1.1-0.6-2.3-0.7-3.2-0.2c-0.9,0.5-1.4,1.5-1.4,2.8v7.4l0,0c0,0.2,0.1,0.3,0.3,0.5
			c0.4,0.3,1.1,0.3,1.6,0c0.2-0.1,0.3-0.3,0.3-0.5V3.2c0-0.5,0.2-0.8,0.3-0.9c0.1-0.1,0.5-0.1,0.9,0.2l1.7,1l1.1-1.9L45.2,0.5z"/>
		<path class="st4" d="M56,49.3c-0.4,0.3-1.2,0.3-1.6,0c-0.4-0.3-0.4-0.7,0-0.9c0.4-0.3,1.2-0.3,1.6,0C56.5,48.6,56.5,49.1,56,49.3z
			"/>
		<path class="st3" d="M52.9,5l-6-3.5c-0.5-0.3-1.2-0.1-1.5,0.4c-0.3,0.5-0.1,1.2,0.4,1.5l6,3.5c1.2,0.7,2.3,2.6,2.3,4v37.8
			c0,0.2,0.1,0.3,0.3,0.5c0.4,0.3,1.1,0.3,1.6,0c0.2-0.1,0.3-0.3,0.3-0.5V10.9C56.3,8.7,54.8,6.1,52.9,5z"/>
	</g>
	<g>
		<path class="st0" d="M33.2,59.6c-4,2.3-10.4,2.3-14.4,0c-4-2.3-4-6,0-8.3c4-2.3,10.4-2.3,14.4,0C37.2,53.6,37.2,57.3,33.2,59.6z"
			/>
		<path class="st5" d="M35.5,50.4H16.6v4.6l0,0c0,1.4,0.9,2.8,2.8,3.9c3.7,2.1,9.7,2.1,13.4,0c1.8-1.1,2.8-2.5,2.8-3.9l0,0V50.4z"/>
		<path class="st6" d="M21.7,50.4h-5.1v4.6c0,1.4,0.9,2.8,2.8,3.9c0.7,0.4,1.5,0.7,2.4,1V50.4z"/>
		<path class="st7" d="M35.9,27.3c0-4.8-4.4-8.7-9.9-8.7c-5.5,0-9.9,3.9-9.9,8.7v22.9l0,0c0,1.5,1,2.9,2.9,4c3.9,2.2,10.1,2.2,14,0
			c1.9-1.1,2.9-2.6,2.9-4l0,0V27.3z"/>
		<g class="st6">
			<path class="st8" d="M19.1,54.2c0.6,0.4,1.4,0.7,2.1,0.9V35.5c0-3.3-2-6.1-5-7.6v22.3C16.2,51.6,17.1,53.1,19.1,54.2z"/>
		</g>
		<g>
			<path class="st3" d="M28.5,19.7h-1.3c-0.7-0.2-1.5-0.2-2.2,0h-1.3v2.2l0,0c0,0.4,0.2,0.7,0.7,1c0.9,0.5,2.5,0.5,3.4,0
				c0.5-0.3,0.7-0.6,0.7-1l0,0V19.7z"/>
			<path class="st1" d="M27.8,20.7c-0.9,0.5-2.5,0.5-3.4,0c-0.9-0.5-0.9-1.4,0-2c0.9-0.5,2.5-0.5,3.4,0
				C28.7,19.2,28.7,20.1,27.8,20.7z"/>
			<path class="st2" d="M27.2,20.4c-0.7,0.4-1.7,0.4-2.4,0c-0.7-0.4-0.7-1,0-1.4c0.7-0.4,1.7-0.4,2.4,0C27.9,19.4,27.9,20,27.2,20.4
				z"/>
			<path d="M26.9,19.2c-0.4-0.3-1.2-0.3-1.6,0c-0.4,0.3-0.4,0.7,0,0.9c0,0,0,0,0,0c0.4,0.3,1.2,0.3,1.6,0c0,0,0,0,0,0
				C27.3,19.9,27.3,19.5,26.9,19.2z"/>
		</g>
		<path class="st3" d="M29.5,9.6c-1.1-0.6-2.3-0.7-3.2-0.2c-0.9,0.5-1.4,1.5-1.4,2.8v7.4l0,0c0,0.2,0.1,0.3,0.3,0.5
			c0.4,0.3,1.1,0.3,1.6,0c0.2-0.1,0.3-0.3,0.3-0.5v-7.4c0-0.5,0.2-0.8,0.3-0.9c0.1-0.1,0.5-0.1,0.9,0.2l1.7,1l1.1-1.9L29.5,9.6z"/>
		<path class="st4" d="M40.3,58.4c-0.4,0.3-1.2,0.3-1.6,0c-0.4-0.3-0.4-0.7,0-0.9c0.4-0.3,1.2-0.3,1.6,0
			C40.8,57.7,40.8,58.1,40.3,58.4z"/>
		<path class="st3" d="M37.2,14l-6-3.5c-0.5-0.3-1.2-0.1-1.5,0.4c-0.3,0.5-0.1,1.2,0.4,1.5l6,3.5c1.2,0.7,2.3,2.6,2.3,4v37.8
			c0,0.2,0.1,0.3,0.3,0.5c0.4,0.3,1.1,0.3,1.6,0c0.2-0.1,0.3-0.3,0.3-0.5V20C40.6,17.8,39.1,15.2,37.2,14z"/>
	</g>
	<g>
		<path class="st0" d="M17.4,68.8c-4,2.3-10.4,2.3-14.4,0c-4-2.3-4-6,0-8.3c4-2.3,10.4-2.3,14.4,0C21.3,62.8,21.3,66.5,17.4,68.8z"
			/>
		<path class="st5" d="M19.6,59.6H0.7v4.6l0,0c0,1.4,0.9,2.8,2.8,3.9c3.7,2.1,9.7,2.1,13.4,0c1.8-1.1,2.8-2.5,2.8-3.9l0,0V59.6z"/>
		<path class="st7" d="M20.1,36.5c0-4.8-4.4-8.7-9.9-8.7c-5.5,0-9.9,3.9-9.9,8.7v22.9l0,0c0,1.5,1,2.9,2.9,4c3.9,2.2,10.1,2.2,14,0
			c1.9-1.1,2.9-2.6,2.9-4l0,0V36.5z"/>
		<g>
			<path class="st3" d="M12.6,28.9h-1.3c-0.7-0.2-1.5-0.2-2.2,0H7.8V31l0,0c0,0.4,0.2,0.7,0.7,1c0.9,0.5,2.5,0.5,3.4,0
				c0.5-0.3,0.7-0.6,0.7-1l0,0V28.9z"/>
			<path class="st1" d="M11.9,29.8c-0.9,0.5-2.5,0.5-3.4,0c-0.9-0.5-0.9-1.4,0-2c0.9-0.5,2.5-0.5,3.4,0
				C12.8,28.4,12.8,29.3,11.9,29.8z"/>
			<path class="st2" d="M11.4,29.5c-0.7,0.4-1.7,0.4-2.4,0c-0.7-0.4-0.7-1,0-1.4c0.7-0.4,1.7-0.4,2.4,0C12,28.5,12,29.2,11.4,29.5z"
				/>
			<path d="M11,28.4c-0.4-0.3-1.2-0.3-1.6,0c-0.4,0.3-0.4,0.7,0,0.9c0,0,0,0,0,0c0.4,0.3,1.2,0.3,1.6,0c0,0,0,0,0,0
				C11.4,29,11.4,28.6,11,28.4z"/>
		</g>
		<path class="st3" d="M13.6,18.8c-1.1-0.6-2.3-0.7-3.2-0.2c-0.9,0.5-1.4,1.5-1.4,2.8v7.4l0,0c0,0.2,0.1,0.3,0.3,0.5
			c0.4,0.3,1.1,0.3,1.6,0c0.2-0.1,0.3-0.3,0.3-0.5v-7.4c0-0.5,0.2-0.8,0.3-0.9c0.1-0.1,0.5-0.1,0.9,0.2l1.7,1l1.1-1.9L13.6,18.8z"/>
		<path class="st4" d="M24.4,67.6c-0.4,0.3-1.2,0.3-1.6,0c-0.4-0.3-0.4-0.7,0-0.9c0.4-0.3,1.2-0.3,1.6,0
			C24.9,66.9,24.9,67.3,24.4,67.6z"/>
		<path class="st3" d="M21.3,23.2l-6-3.5c-0.5-0.3-1.2-0.1-1.5,0.4c-0.3,0.5-0.1,1.2,0.4,1.5l6,3.5c1.2,0.7,2.3,2.6,2.3,4V67
			c0,0.2,0.1,0.3,0.3,0.5c0.4,0.3,1.1,0.3,1.6,0c0.2-0.1,0.3-0.3,0.3-0.5V29.2C24.7,27,23.2,24.3,21.3,23.2z"/>
	</g>
</g>
</svg>
