<?xml version="1.0" encoding="utf-8"?>
<!-- Generator: Adobe Illustrator 19.0.0, SVG Export Plug-In . SVG Version: 6.00 Build 0)  -->
<svg version="1.1" id="Layer_1" xmlns="http://www.w3.org/2000/svg" xmlns:xlink="http://www.w3.org/1999/xlink" x="0px" y="0px"
	 viewBox="0 0 20.1 38.1" style="enable-background:new 0 0 20.1 38.1;" width="131" height="245" xml:space="preserve">
<style type="text/css">
	.st0{fill:#808080;}
	.st1{fill:#A6A6A6;}
	.st2{fill:#E7EDF8;}
	.st3{fill:#FFFFFF;}
	.st4{fill:#C2D2ED;}
</style>
<g>
	<g>
		<g>
			<path class="st0" d="M20.1,30.7h-5.5c-2.9-0.8-6.3-0.8-9.1,0H0v1.6l0,0c0,1.5,1,3,2.9,4.1c3.9,2.3,10.3,2.3,14.2,0
				c2-1.1,2.9-2.6,2.9-4.1l0,0V30.7z"/>
			<path class="st1" d="M17.1,34.8c-3.9,2.3-10.3,2.3-14.2,0c-3.9-2.3-3.9-5.9,0-8.2c3.9-2.3,10.3-2.3,14.2,0
				C21.1,28.9,21.1,32.5,17.1,34.8z"/>
		</g>
		<g>
			<path class="st2" d="M19.5,5.5h-5.2c-2.7-0.8-5.9-0.8-8.6,0H0.6v24.9l0,0c0,1.4,0.9,2.8,2.8,3.9c3.7,2.1,9.7,2.1,13.4,0
				c1.9-1.1,2.8-2.5,2.8-3.9l0,0V5.5z"/>
			<path class="st3" d="M16.8,9.3C13,11.5,7,11.5,3.3,9.3c-3.7-2.1-3.7-5.6,0-7.7C7-0.5,13-0.5,16.8,1.6C20.5,3.7,20.5,7.2,16.8,9.3
				z"/>
			<path class="st4" d="M19.5,17.8c0,1.4-0.9,2.8-2.8,3.9c-3.7,2.1-9.7,2.1-13.4,0c-1.9-1.1-2.8-2.5-2.8-3.9l0,0v0.8
				c0,1.4,0.9,2.8,2.8,3.9c3.7,2.1,9.7,2.1,13.4,0c1.9-1.1,2.8-2.5,2.8-3.9V17.8L19.5,17.8z"/>
			<path class="st4" d="M19.5,22.3c0,1.4-0.9,2.8-2.8,3.9c-3.7,2.1-9.7,2.1-13.4,0c-1.9-1.1-2.8-2.5-2.8-3.9l0,0v0.8
				c0,1.4,0.9,2.8,2.8,3.9c3.7,2.1,9.7,2.1,13.4,0c1.9-1.1,2.8-2.5,2.8-3.9V22.3L19.5,22.3z"/>
			<path class="st4" d="M16.6,6.1c-0.2-0.8-0.8-1.5-1.8-2.1c-2.6-1.5-6.8-1.5-9.4,0c-1,0.6-1.6,1.3-1.8,2.1C3.1,4.9,3.8,3.7,5.3,2.8
				c2.6-1.5,6.8-1.5,9.4,0C16.3,3.7,16.9,4.9,16.6,6.1z"/>
			<path class="st2" d="M16.6,6.1c-0.2,0.8-0.8,1.5-1.8,2.1c-2.6,1.5-6.8,1.5-9.4,0c-1-0.6-1.6-1.3-1.8-2.1c0.2-0.8,0.8-1.5,1.8-2.1
				c2.6-1.5,6.8-1.5,9.4,0C15.7,4.7,16.4,5.4,16.6,6.1z"/>
		</g>
	</g>
</g>
</svg>
