<svg xmlns="http://www.w3.org/2000/svg" xmlns:xlink="http://www.w3.org/1999/xlink" preserveAspectRatio="xMidYMid" width="16" height="15.969" viewBox="0 0 16 15.969">
  <defs>
    <style>
      .cls-1 {
        fill: #7b7b7b;
        fill-rule: evenodd;
      }
    </style>
  </defs>
  <path d="M15.639,12.629 L13.169,10.152 C12.677,9.660 11.862,9.675 11.353,10.186 L10.108,11.434 C10.029,11.390 9.948,11.344 9.863,11.296 C9.077,10.860 8.001,10.262 6.869,9.125 C5.734,7.987 5.137,6.907 4.700,6.118 C4.654,6.035 4.610,5.954 4.566,5.878 L5.401,5.042 L5.812,4.629 C6.322,4.118 6.336,3.301 5.845,2.808 L3.375,0.331 C2.884,-0.161 2.069,-0.146 1.559,0.365 L0.863,1.067 L0.882,1.086 C0.648,1.385 0.453,1.729 0.308,2.101 C0.174,2.454 0.091,2.792 0.053,3.130 C-0.273,5.841 0.962,8.320 4.316,11.682 C8.951,16.330 12.687,15.979 12.848,15.962 C13.199,15.920 13.535,15.836 13.877,15.703 C14.245,15.559 14.588,15.364 14.885,15.130 L14.901,15.144 L15.606,14.451 C16.115,13.939 16.129,13.123 15.639,12.629 Z" class="cls-1"/>
</svg>
