<svg xmlns="http://www.w3.org/2000/svg" xmlns:xlink="http://www.w3.org/1999/xlink" preserveAspectRatio="xMidYMid" width="31.97" height="30" viewBox="0 0 31.97 30">
  <defs>
    <style>
      .cls-1 {
        fill: url(#linear-gradient-1);
        fill-rule: evenodd;
      }
    </style>

    <linearGradient id="linear-gradient-1" gradientUnits="userSpaceOnUse" x1="31.97" y1="27.944" x2="0" y2="2.056">
      <stop offset="0.15" stop-color="#6cceec"/>
      <stop offset="0.85" stop-color="#0a7cb3"/>
    </linearGradient>
  </defs>
  <path d="M31.977,4.697 L29.208,16.697 C29.113,17.108 28.739,17.400 28.308,17.400 L9.776,17.400 L10.486,20.400 L28.246,20.400 C28.756,20.400 29.169,20.803 29.169,21.300 C29.169,21.796 28.756,22.200 28.246,22.200 L9.751,22.200 C9.322,22.200 8.949,21.910 8.852,21.502 L4.189,1.800 L0.923,1.800 C0.413,1.800 -0.000,1.397 -0.000,0.900 C-0.000,0.403 0.413,-0.000 0.923,-0.000 L4.923,-0.000 C5.353,-0.000 5.726,0.289 5.822,0.697 L6.509,3.600 L31.077,3.600 C31.357,3.600 31.622,3.724 31.798,3.937 C31.973,4.151 32.039,4.431 31.977,4.697 ZM13.538,23.399 C15.405,23.399 16.923,24.880 16.923,26.700 C16.923,28.519 15.405,30.000 13.538,30.000 C11.672,30.000 10.154,28.519 10.154,26.700 C10.154,24.880 11.672,23.399 13.538,23.399 ZM24.615,23.399 C26.482,23.399 28.000,24.880 28.000,26.700 C28.000,28.519 26.481,30.000 24.615,30.000 C22.749,30.000 21.231,28.519 21.231,26.700 C21.231,24.880 22.749,23.399 24.615,23.399 Z" class="cls-1"/>
</svg>
