<svg xmlns="http://www.w3.org/2000/svg" xmlns:xlink="http://www.w3.org/1999/xlink" preserveAspectRatio="xMidYMid" width="12" height="16" viewBox="0 0 12 16">
  <defs>
    <style>
      .cls-1 {
        fill: #7b7b7b;
        fill-rule: evenodd;
      }
    </style>
  </defs>
  <path d="M6.000,-0.000 C2.691,-0.000 -0.000,2.599 -0.000,5.794 C-0.000,9.759 5.369,15.581 5.598,15.826 C5.813,16.057 6.188,16.057 6.402,15.826 C6.631,15.581 12.000,9.759 12.000,5.794 C12.000,2.599 9.308,-0.000 6.000,-0.000 ZM6.000,8.710 C4.335,8.710 2.981,7.402 2.981,5.794 C2.981,4.187 4.335,2.879 6.000,2.879 C7.664,2.879 9.019,4.187 9.019,5.794 C9.019,7.402 7.664,8.710 6.000,8.710 Z" class="cls-1"/>
</svg>
