<svg xmlns="http://www.w3.org/2000/svg" xmlns:xlink="http://www.w3.org/1999/xlink" preserveAspectRatio="xMidYMid" width="9" height="20" viewBox="0 0 9 20">
  <defs>
    <style>
      .cls-1 {
        fill: #afafaf;
        fill-rule: evenodd;
      }
    </style>
  </defs>
  <path d="M8.731,17.841 L8.447,18.983 C7.592,19.314 6.910,19.566 6.402,19.739 C5.894,19.912 5.303,19.999 4.630,19.999 C3.596,19.999 2.792,19.750 2.218,19.256 C1.644,18.761 1.358,18.132 1.358,17.370 C1.358,17.075 1.378,16.772 1.422,16.463 C1.465,16.153 1.535,15.804 1.630,15.415 L2.697,11.707 C2.792,11.352 2.873,11.015 2.937,10.697 C3.003,10.381 3.034,10.090 3.034,9.828 C3.034,9.355 2.935,9.023 2.736,8.837 C2.537,8.652 2.157,8.558 1.594,8.558 C1.318,8.558 1.035,8.601 0.746,8.684 C0.455,8.769 0.207,8.850 -0.001,8.926 L0.284,7.783 C0.983,7.503 1.652,7.264 2.291,7.065 C2.930,6.866 3.534,6.766 4.106,6.766 C5.132,6.766 5.925,7.010 6.481,7.497 C7.037,7.985 7.315,8.617 7.315,9.396 C7.315,9.557 7.297,9.840 7.258,10.247 C7.220,10.653 7.148,11.026 7.044,11.365 L5.981,15.058 C5.894,15.354 5.816,15.694 5.748,16.075 C5.678,16.454 5.644,16.744 5.644,16.938 C5.644,17.428 5.755,17.763 5.979,17.941 C6.204,18.119 6.591,18.208 7.141,18.208 C7.400,18.208 7.694,18.163 8.020,18.074 C8.346,17.986 8.584,17.909 8.731,17.841 ZM9.001,2.336 C9.001,2.979 8.754,3.529 8.257,3.980 C7.762,4.434 7.165,4.661 6.467,4.661 C5.767,4.661 5.169,4.434 4.668,3.980 C4.168,3.528 3.918,2.979 3.918,2.336 C3.918,1.693 4.168,1.143 4.668,0.685 C5.168,0.228 5.767,0.000 6.467,0.000 C7.165,0.000 7.762,0.229 8.257,0.685 C8.754,1.143 9.001,1.694 9.001,2.336 Z" class="cls-1"/>
</svg>
