<?xml version="1.0" encoding="iso-8859-1"?>
<!-- Generator: Adobe Illustrator 19.0.0, SVG Export Plug-In . SVG Version: 6.00 Build 0)  -->
<svg version="1.1" id="Capa_1" xmlns="http://www.w3.org/2000/svg" xmlns:xlink="http://www.w3.org/1999/xlink" x="0px" y="0px"
	 viewBox="-49 141 496 264" style="enable-background:new -49 141 496 264;" xml:space="preserve">
<path style="fill:#0F5C99;" d="M413.088,224.92l-62.936-9.688c-6.64-1.016-12.584-4.816-16.312-10.408l-30.68-46.016
	C295.728,147.656,283.288,141,269.872,141H16.056c-8.384,0-16.272,4.464-20.576,11.648C-33.616,201.152-49,256.68-49,313.232V341
	c0,13.232,10.768,24,24,24h40v-16h-40c-4.408,0-8-3.584-8-8v-8h64v-16h-64v-3.768c0-53.656,14.592-106.344,42.2-152.352
	c1.44-2.392,4.064-3.88,6.856-3.88h253.816c8.048,0,15.504,3.992,19.968,10.688l30.68,46.016
	c6.208,9.328,16.128,15.648,27.192,17.344l54.376,8.368C400.112,243.632,399,248.248,399,253c0,17.648,14.352,32,32,32v32h-48v16h48
	v8c0,4.416-3.592,8-8,8h-24v16h24c13.232,0,24-10.768,24-24v-76.544C447,244.56,432.736,227.936,413.088,224.92z M415,253
	c0-3.536,1.2-6.92,3.312-9.688C425.96,247.36,431,255.32,431,264.456V269C422.176,269,415,261.824,415,253z"/>
<rect x="95" y="349" style="fill:#0F5C99;" width="224" height="16"/>
<polygon style="fill:#0F5C99;" points="319,301 319,242.576 301.656,216.56 288.344,225.44 303,247.424 303,301 "/>
<polygon style="fill:#0F5C99;" points="191,253 175,253 175,317 79,317 79,333 335,333 335,317 191,317 "/>
<rect x="207" y="253" style="fill:#0F5C99;" width="32" height="16"/>
<g>
	<path style="fill:#97ABFF;" d="M359,405c-26.472,0-48-21.528-48-48s21.528-48,48-48s48,21.528,48,48S385.472,405,359,405z"/>
	<path style="fill:#97ABFF;" d="M55,405c-26.472,0-48-21.528-48-48s21.528-48,48-48s48,21.528,48,48S81.472,405,55,405z"/>
	<path style="fill:#97ABFF;" d="M315.44,237H175v-64h87.136c8.32,0,15.928,4.216,20.352,11.28L315.44,237z"/>
	<path style="fill:#97ABFF;" d="M159,237H-4.104l15.864-47.592C15.04,179.592,24.184,173,34.528,173H159V237z"/>
</g>
<rect x="343" y="269" style="fill:#0F5C99;" width="16" height="16"/>
<rect x="47" y="349" style="fill:#0F5C99;" width="16" height="16"/>
<rect x="351" y="349" style="fill:#0F5C99;" width="16" height="16"/>
</svg>
