<?xml version="1.0" encoding="iso-8859-1"?>
<!-- Generator: Adobe Illustrator 19.0.0, SVG Export Plug-In . SVG Version: 6.00 Build 0)  -->
<svg version="1.1" id="Capa_1" xmlns="http://www.w3.org/2000/svg" xmlns:xlink="http://www.w3.org/1999/xlink" x="0px" y="0px"
	 viewBox="-41 149 496 496" style="enable-background:new -41 149 496 496;" xml:space="preserve">
<path style="fill:#97ABFF;" d="M103,509C41.24,509-9,458.76-9,397s50.24-112,112-112s112,50.24,112,112S164.76,509,103,509z"/>
<path style="fill:#0F5C99;" d="M434.976,381.32c-4.432-0.712-8.84-0.072-12.872,1.544C419.376,372.608,410.096,365,399,365
	c-6.168,0-11.744,2.408-16,6.24c-4.256-3.84-9.832-6.24-16-6.24c-2.816,0-5.488,0.576-8,1.472V309c0-7.056-3.088-13.72-8.464-18.288
	c-5.376-4.576-12.48-6.52-19.512-5.392C319.608,287.176,311,297.736,311,309.856V389c-22.056,0-40,17.944-40,40v74.744
	c0,10.688,4.168,20.736,11.72,28.288l28.28,28.28V645h128v-86.464l13.136-32.832c1.904-4.736,2.864-9.736,2.864-14.872V405.856
	C455,393.736,446.392,383.176,434.976,381.32z M439,510.832c0,3.08-0.576,6.072-1.72,8.912L423,555.464V629h-96v-75.312
	l-32.968-32.968c-4.536-4.536-7.032-10.56-7.032-16.976V429c0-13.232,10.768-24,24-24v64h16V309.856c0-4.304,2.896-8.144,6.6-8.744
	c2.408-0.4,4.76,0.24,6.576,1.784c1.792,1.528,2.824,3.752,2.824,6.104v80v40h16v-40c0-4.416,3.584-8,8-8s8,3.584,8,8v40h16v-40
	c0-4.416,3.584-8,8-8s8,3.584,8,8v16v24h16v-24c0-2.352,1.032-4.576,2.824-6.104c1.824-1.544,4.144-2.184,6.576-1.784
	c3.704,0.608,6.6,4.44,6.6,8.744V510.832z"/>
<path style="fill:#0F5C99;" d="M207,149H-1c-22.056,0-40,17.944-40,40v416c0,22.056,17.944,40,40,40h208c22.056,0,40-17.944,40-40
	V189C247,166.944,229.056,149,207,149z M-1,165h208c13.232,0,24,10.768,24,24v24H-25v-24C-25,175.768-14.232,165-1,165z M231,229
	v336H-25V229H231z M207,629H-1c-13.232,0-24-10.768-24-24v-24h256v24C231,618.232,220.232,629,207,629z"/>
<rect x="55" y="597" style="fill:#0F5C99;" width="96" height="16"/>
<path style="fill:#0F5C99;" d="M103,333c35.288,0,64,28.712,64,64c0,14.648-4.848,28.448-14.024,39.904l12.488,10
	C176.936,432.576,183,415.32,183,397c0-44.112-35.888-80-80-80c-18.312,0-35.568,6.064-49.912,17.52l10,12.496
	C74.552,337.848,88.36,333,103,333z"/>
<path style="fill:#0F5C99;" d="M103,477c18.312,0,35.568-6.064,49.912-17.52l-10-12.496C131.448,456.152,117.64,461,103,461
	c-35.288,0-64-28.712-64-64c0-14.64,4.848-28.448,14.024-39.912l-12.496-10C29.064,361.432,23,378.688,23,397
	C23,441.112,58.888,477,103,477z"/>
<polygon style="fill:#0F5C99;" points="79,417.688 68.656,407.344 57.344,418.656 79,440.312 148.656,370.656 137.344,359.344 "/>
</svg>
