<svg xmlns="http://www.w3.org/2000/svg" xmlns:xlink="http://www.w3.org/1999/xlink" preserveAspectRatio="xMidYMid" width="30" height="30" viewBox="0 0 30 30">
  <defs>
    <style>
      .cls-1 {
        fill: #0f5c99;
        fill-rule: evenodd;
      }
    </style>
  </defs>
  <path d="M20.057,14.993 L28.928,6.120 C30.332,4.716 30.332,2.439 28.928,1.036 C27.526,-0.367 25.249,-0.367 23.847,1.036 L14.975,9.910 L6.103,1.036 C4.701,-0.367 2.423,-0.367 1.021,1.036 C-0.383,2.440 -0.383,4.716 1.021,6.120 L9.892,14.993 L1.021,23.866 C-0.383,25.270 -0.383,27.546 1.021,28.949 C1.723,29.651 2.643,30.002 3.562,30.002 C4.481,30.002 5.402,29.651 6.103,28.949 L14.975,20.076 L23.847,28.950 C24.548,29.652 25.468,30.002 26.388,30.002 C27.307,30.002 28.228,29.652 28.928,28.950 C30.332,27.546 30.332,25.270 28.928,23.866 L20.057,14.993 Z" class="cls-1"/>
</svg>
