<svg xmlns="http://www.w3.org/2000/svg" xmlns:xlink="http://www.w3.org/1999/xlink" preserveAspectRatio="xMidYMid" width="50" height="69" viewBox="0 0 50 69">
  <defs>
    <style>
      .cls-1 {
        fill: #0f5c99;
        fill-rule: evenodd;
      }
    </style>
  </defs>
  <path d="M25.000,-0.000 C11.215,-0.000 -0.000,11.210 -0.000,24.989 C-0.000,42.088 22.372,67.192 23.325,68.252 C24.220,69.248 25.782,69.246 26.675,68.252 C27.627,67.192 50.000,42.088 50.000,24.989 C50.000,11.210 38.785,-0.000 25.000,-0.000 ZM25.000,37.561 C18.064,37.561 12.422,31.921 12.422,24.989 C12.422,18.056 18.064,12.416 25.000,12.416 C31.935,12.416 37.578,18.056 37.578,24.989 C37.578,31.921 31.935,37.561 25.000,37.561 Z" class="cls-1"/>
</svg>
