<?xml version="1.0" encoding="iso-8859-1"?>
<!-- Generator: Adobe Illustrator 19.0.0, SVG Export Plug-In . SVG Version: 6.00 Build 0)  -->
<svg version="1.1" id="Capa_1" xmlns="http://www.w3.org/2000/svg" xmlns:xlink="http://www.w3.org/1999/xlink" x="0px" y="0px"
	 viewBox="-41 149 496 496" style="enable-background:new -41 149 496 496;" xml:space="preserve">
<g>
	<path style="fill:#97ABFF;" d="M229.128,247.112L207,241.488l-22.128,5.624l-1.72-23.672l-11.624-19.848l20.592-8.92L207,176.28
		l14.872,18.384l20.592,8.92l-11.624,19.848L229.128,247.112z"/>
	<path style="fill:#97ABFF;" d="M309.128,247.112L287,241.488l-22.128,5.624l-1.72-23.672l-11.624-19.848l20.592-8.92L287,176.28
		l14.872,18.384l20.592,8.92l-11.624,19.848L309.128,247.112z"/>
	<path style="fill:#97ABFF;" d="M269.128,311.112L247,305.488l-22.128,5.624l-1.72-23.672l-11.624-19.848l20.592-8.92L247,240.28
		l14.872,18.384l20.592,8.92l-11.624,19.848L269.128,311.112z"/>
	<path style="fill:#97ABFF;" d="M349.128,311.112L327,305.488l-22.128,5.624l-1.72-23.672l-11.624-19.848l20.592-8.92L327,240.28
		l14.872,18.384l20.592,8.92l-11.624,19.848L349.128,311.112z"/>
	<path style="fill:#97ABFF;" d="M389.128,247.112L367,241.488l-22.128,5.624l-1.72-23.672l-11.624-19.848l20.592-8.92L367,176.28
		l14.872,18.384l20.592,8.92l-11.624,19.848L389.128,247.112z"/>
</g>
<path style="fill:#0F5C99;" d="M119,149v232h-8H92.416c-2.984,0-5.416-2.432-5.416-5.416c0-0.456,0.056-0.904,0.168-1.352
	C97.528,358.96,103,341.16,103,322.68V293c0-13.232-10.768-24-24-24s-24,10.768-24,24c0,23.664-9.208,45.904-25.936,62.632
	L10.72,373.976C6.184,378.504,0.16,381-6.256,381H-25v-8v-8h-16v8v136v8h16v-8v-8h21.336c5.16,0,10.272,1.704,14.4,4.8L25.664,517
	c6.872,5.16,15.4,8,24,8H111h8v120h251.312L455,560.312V149H119z M167,397c4.416,0,8,3.592,8,8c0,4.416-3.584,8-8,8h-56
	c-4.416,0-8-3.584-8-8c0-4.408,3.584-8,8-8H167z M175,437c0,4.416-3.584,8-8,8h-56c-4.416,0-8-3.584-8-8s3.584-8,8-8h56
	C171.416,429,175,432.584,175,437z M103,469c0-4.416,3.584-8,8-8h56c4.416,0,8,3.584,8,8s-3.584,8-8,8h-56
	C106.584,477,103,473.416,103,469z M35.264,504.2L20.336,493c-6.872-5.16-15.4-8-24-8H-25v-88h18.744
	c10.688,0,20.736-4.16,28.288-11.712l18.344-18.344C60.128,347.192,71,320.936,71,293c0-4.408,3.584-8,8-8s8,3.592,8,8v29.68
	c0,15.576-4.704,30.568-13.6,43.352l-0.864,1.608c-1.024,2.544-1.536,5.216-1.536,7.944c0,10.504,7.608,19.216,17.592,21.032
	C87.608,399.232,87,402.04,87,405c0,6.168,2.408,11.744,6.24,16c-3.84,4.256-6.24,9.832-6.24,16s2.408,11.744,6.24,16
	c-3.84,4.256-6.24,9.832-6.24,16s2.408,11.744,6.24,16c-3.84,4.256-6.24,9.832-6.24,16c0,2.816,0.576,5.488,1.472,8H49.664
	C44.504,509,39.392,507.296,35.264,504.2z M111,509c-4.416,0-8-3.584-8-8s3.584-8,8-8h56c4.416,0,8,3.584,8,8s-3.584,8-8,8h-16H111z
	 M135,525h16h16c13.232,0,24-10.768,24-24c0-6.168-2.408-11.744-6.24-16c3.84-4.256,6.24-9.832,6.24-16s-2.408-11.744-6.24-16
	c3.84-4.256,6.24-9.832,6.24-16s-2.408-11.744-6.24-16c3.84-4.256,6.24-9.832,6.24-16c0-13.232-10.768-24-24-24h-32V165h304v384h-80
	v80H135V525z M427.688,565L375,617.688V565H427.688z"/>
<path style="fill:#0F5C99;" d="M305.344,327.344L283.688,349H207v80h80v-60.688l29.656-29.656L305.344,327.344z M271,413h-48v-48
	h44.688L247,385.688l-10.344-10.344l-11.312,11.312L247,408.312l24-24V413z"/>
<path style="fill:#0F5C99;" d="M207,533h80v-80h-80V533z M223,469h48v48h-48V469z"/>
<rect x="327" y="349" style="fill:#0F5C99;" width="96" height="16"/>
<rect x="327" y="413" style="fill:#0F5C99;" width="96" height="16"/>
<rect x="327" y="381" style="fill:#0F5C99;" width="40" height="16"/>
<rect x="383" y="381" style="fill:#0F5C99;" width="40" height="16"/>
<rect x="327" y="453" style="fill:#0F5C99;" width="96" height="16"/>
<rect x="327" y="517" style="fill:#0F5C99;" width="96" height="16"/>
<rect x="327" y="485" style="fill:#0F5C99;" width="40" height="16"/>
<rect x="383" y="485" style="fill:#0F5C99;" width="40" height="16"/>
</svg>
