<?xml version="1.0" encoding="iso-8859-1"?>
<!-- Generator: Adobe Illustrator 19.0.0, SVG Export Plug-In . SVG Version: 6.00 Build 0)  -->
<svg version="1.1" id="Capa_1" xmlns="http://www.w3.org/2000/svg" xmlns:xlink="http://www.w3.org/1999/xlink" x="0px" y="0px"
	 viewBox="-41 149 496 496" style="enable-background:new -41 149 496 496;" xml:space="preserve">
<g>
	<path style="fill:#FFFFFF;" d="M55,381v20.448C4.288,415.464-33,461.824-33,517c0,66.272,53.728,120,120,120s120-53.728,120-120
		c0-55.176-37.288-101.536-88-115.552V381H55z"/>
	<path style="fill:#FFFFFF;" d="M271,637h128c17.672,0,32-14.328,32-32V445H239v160C239,622.672,253.328,637,271,637z"/>
</g>
<path style="fill:#0F5C99;" d="M127,395.512V309h32v-36.496c3.024-1.76,5.864-3.864,8.2-6.568c6.08-7.024,8.8-16.384,7.456-25.664
	c-1.344-9.336-7.368-17.904-16.112-22.928c-5.352-3.08-10.92-4.544-16.552-4.328c-3.744-14.512-17.672-25.128-33.336-23.92
	C101.72,165.728,80,149,55,149c-30.88,0-56,25.12-56,56c0,0.056,0,0.112,0,0.168c-9.976,7.512-16,19.304-16,31.832v80
	c0,13.232,10.768,24,24,24c3.12,0,6.104-0.6,8.84-1.688C18.624,349.496,27.952,357,39,357c2.816,0,5.488-0.576,8-1.472v39.984
	C-5.112,412.656-41,461.752-41,517c0,70.576,57.424,128,128,128s128-57.424,128-128C215,461.752,179.112,412.656,127,395.512z
	 M143,293H63v-16h80V293z M39,341c-4.408,0-8-3.592-8-8v-16v-8H15v8c0,4.408-3.592,8-8,8s-8-3.592-8-8v-80
	c0-8.624,4.56-16.376,12.2-20.744l4.464-2.544l-0.464-5.12c-0.112-1.184-0.2-2.376-0.2-3.592c0-22.056,17.944-40,40-40
	c19.944,0,36.968,14.904,39.6,34.672l1.336,9.992l9.424-3.56c11.384-4.288,21.64,4.28,21.64,14.664l-0.872,13.416l11.456-4.152
	c4.632-1.672,8.648-1.328,12.992,1.176c4.448,2.552,7.616,6.904,8.256,11.344c0.688,4.752-0.632,9.336-3.712,12.904
	C152.064,258.984,147.648,261,143,261H47v40v32C47,337.408,43.408,341,39,341z M87,629c-61.76,0-112-50.24-112-112
	c0-50.128,33.776-94.472,82.136-107.84L63,407.536V333v-24h48v98.536l5.864,1.624C165.224,422.528,199,466.872,199,517
	C199,578.76,148.76,629,87,629z"/>
<path style="fill:#0F5C99;" d="M127,541c0,13.232,10.768,24,24,24s24-10.768,24-24s-10.768-24-24-24S127,527.768,127,541z M159,541
	c0,4.408-3.592,8-8,8s-8-3.592-8-8s3.592-8,8-8S159,536.592,159,541z"/>
<path style="fill:#0F5C99;" d="M39,493c13.232,0,24-10.768,24-24s-10.768-24-24-24s-24,10.768-24,24S25.768,493,39,493z M39,461
	c4.408,0,8,3.592,8,8s-3.592,8-8,8s-8-3.592-8-8S34.592,461,39,461z"/>
<rect x="391" y="461" style="fill:#0F5C99;" width="16" height="128"/>
<path style="fill:#0F5C99;" d="M455,171.4v-0.872c0-11.864-9.664-21.528-21.528-21.528c-9.808,0-18.376,6.632-20.84,16.128
	L360.808,365H215v48h16v192c0,22.056,17.944,40,40,40h128c22.056,0,40-17.944,40-40V413h16v-48h-45.856L454.4,176.44
	C454.8,174.792,455,173.096,455,171.4z M439,397h-32v16h16v192c0,13.232-10.768,24-24,24H271c-13.232,0-24-10.768-24-24v-16h32v-16
	h-32v-24h48v-16h-48v-32h32v-16h-32v-24h48v-16h-48v-32h144v-16H231v-16h208V397z M439,171.4c0,0.432-0.048,0.864-0.152,1.296
	L392.696,365h-15.36l50.776-195.856c0.632-2.44,2.84-4.144,5.36-4.144c3.048,0,5.528,2.48,5.528,5.528V171.4z"/>
<path style="fill:#0F5C99;" d="M231,245c17.648,0,32-14.352,32-32s-14.352-32-32-32s-32,14.352-32,32S213.352,245,231,245z M231,197
	c8.824,0,16,7.176,16,16s-7.176,16-16,16s-16-7.176-16-16S222.176,197,231,197z"/>
<path style="fill:#0F5C99;" d="M255,301c0,13.232,10.768,24,24,24s24-10.768,24-24s-10.768-24-24-24S255,287.768,255,301z M279,293
	c4.408,0,8,3.592,8,8s-3.592,8-8,8s-8-3.592-8-8S274.592,293,279,293z"/>
<path style="fill:#0F5C99;" d="M151,349c0,13.232,10.768,24,24,24s24-10.768,24-24s-10.768-24-24-24S151,335.768,151,349z M175,341
	c4.408,0,8,3.592,8,8s-3.592,8-8,8s-8-3.592-8-8S170.592,341,175,341z"/>
<rect x="391" y="429" style="fill:#0F5C99;" width="16" height="16"/>
<rect x="31" y="229" style="fill:#0F5C99;" width="16" height="16"/>
<rect x="47" y="189" style="fill:#0F5C99;" width="16" height="16"/>
<rect x="95" y="221" style="fill:#0F5C99;" width="16" height="16"/>
<path style="fill:#0F5C99;" d="M7,517H-9c0,5.864,0.528,11.736,1.584,17.448L8.32,531.56C7.44,526.8,7,521.896,7,517z"/>
<path style="fill:#0F5C99;" d="M12.456,546.088l-14.904,5.824C12.04,589.016,47.152,613,87,613v-16
	C53.792,597,24.528,577.016,12.456,546.088z"/>
</svg>
