<?xml version="1.0" encoding="iso-8859-1"?>
<!-- Generator: Adobe Illustrator 19.0.0, SVG Export Plug-In . SVG Version: 6.00 Build 0)  -->
<svg version="1.1" id="&#x421;&#x43B;&#x43E;&#x439;_1"
	 xmlns="http://www.w3.org/2000/svg" xmlns:xlink="http://www.w3.org/1999/xlink" x="0px" y="0px" viewBox="0 0 496 496"
	 style="enable-background:new 0 0 496 496;" xml:space="preserve">
<g>
	<path style="fill:#0F5C99;" d="M152,115.648h-16V81.793l23.145-5.914c0.16-0.391,0.32-0.781,0.488-1.168l-12.192-20.543
		l42.727-42.727l20.535,12.184c0.395-0.168,0.785-0.328,1.168-0.488L217.793,0h60.422l5.914,23.145
		c0.391,0.16,0.781,0.32,1.168,0.488l20.535-12.184l42.727,42.727l-12.184,20.535c0.168,0.394,0.328,0.785,0.488,1.168L360,81.793
		v33.848h-16V94.207l-19.258-4.91l-1.43-4.031c-0.914-2.61-1.976-5.153-3.16-7.625l-1.84-3.848l10.145-17.098l-25.152-25.152
		l-17.098,10.145l-3.848-1.84c-2.48-1.176-5.015-2.239-7.625-3.16l-4.031-1.43L265.793,16h-35.578l-4.91,19.258l-4.032,1.43
		c-2.617,0.914-5.152,1.976-7.632,3.152l-3.848,1.84l-17.098-10.145l-25.152,25.153l10.145,17.097l-1.84,3.848
		c-1.176,2.48-2.239,5.015-3.16,7.625l-1.43,4.031L152,94.207V115.648z M152,115.648"/>
	<path style="fill:#0F5C99;" d="M295.602,105.734C292.496,81.945,272.039,64,248,64c-23.992,0-44.457,17.902-47.586,41.656
		l-15.855-2.097C188.727,71.887,216.008,48,248,48c32.047,0,59.336,23.93,63.465,55.672L295.602,105.734z M295.602,105.734"/>
	<path style="fill:#0F5C99;" d="M279.129,119.465l-15.563-3.703c0.282-1.235,0.434-2.489,0.434-3.762c0-8.824-7.176-16-16-16
		c-8.824,0-16,7.176-16,16c0,1.191,0.129,2.367,0.383,3.488l-15.606,3.528C216.258,116.734,216,114.375,216,112
		c0-17.648,14.352-32,32-32c17.648,0,32,14.352,32,32C280,114.512,279.703,117.023,279.129,119.465L279.129,119.465z
		 M279.129,119.465"/>
	<path style="fill:#97ABFF;" d="M248.328,338.68L131.023,235.168C114.055,220.191,104.32,198.633,104.32,176v-1.09
		c0-43.512,35.399-78.91,78.91-78.91c18.036,0,35.602,6.191,49.571,17.441l15.312,12.321l15.848-12.61
		C277.863,102.098,295.312,96,313.09,96c21.148,0,41.008,8.258,55.926,23.238c14.922,14.985,23.082,34.883,22.984,56.035
		l-0.008,1.055c-0.097,22.406-9.793,43.817-26.594,58.703L248.328,338.68z M248.328,338.68"/>
	<path style="fill:#0F5C99;" d="M218.855,270l-66.664-58.832c-10.078-8.895-15.871-21.711-15.871-35.168h16
		c0,8.863,3.817,17.312,10.465,23.168L229.457,258L218.855,270z M218.855,270"/>
	<path style="fill:#0F5C99;" d="M471.031,264c-6.574,0-13.008,2.664-17.656,7.312L404.688,320h-27.071l10.192-15.289
		c2.734-4.117,4.191-8.902,4.191-13.856v-1.886c0-13.77-11.199-24.969-24.969-24.969c-6.574,0-13.008,2.664-17.656,7.312
		l-76.969,76.969C261.832,358.855,256,372.922,256,387.879V432h-16v-44.121c0-14.957-5.832-29.024-16.406-39.598l-76.969-76.969
		c-4.648-4.648-11.082-7.312-17.656-7.312C115.199,264,104,275.199,104,288.969v1.886c0,4.946,1.457,9.739,4.191,13.848L118.383,320
		H91.312l-48.687-48.688C37.977,266.664,31.543,264,24.969,264C11.199,264,0,275.199,0,288.969v1.886
		c0,4.946,1.457,9.739,4.191,13.848l46.899,70.352C61.504,390.68,78.93,400,97.688,400H144c4.414,0,8,3.586,8,8v24h-16v64h224v-64
		h-16v-24c0-4.414,3.586-8,8-8h46.312c18.758,0,36.176-9.32,46.59-24.938l46.899-70.351c2.742-4.117,4.199-8.902,4.199-13.856
		v-1.886C496,275.199,484.801,264,471.031,264L471.031,264z M144,384H97.688c-13.399,0-25.84-6.656-33.282-17.816l-46.894-70.352
		C16.52,294.359,16,292.633,16,290.855v-1.886c0-4.946,4.023-8.969,8.969-8.969c2.359,0,4.672,0.953,6.343,2.625L84.688,336h44.367
		l8.289,12.441l13.312-8.875l-29.152-43.726c-0.984-1.481-1.504-3.207-1.504-4.985v-1.886c0-4.946,4.023-8.969,8.969-8.969
		c2.359,0,4.672,0.953,6.343,2.625l76.969,76.969c7.551,7.551,11.719,17.597,11.719,28.285V432h-56v-24
		C168,394.77,157.23,384,144,384L144,384z M240,480h-88v-32h88V480z M344,480h-88v-32h88V480z M480,290.855
		c0,1.778-0.52,3.504-1.504,4.977l-46.894,70.352C424.16,377.344,411.711,384,398.312,384H352c-13.23,0-24,10.77-24,24v24h-56
		v-44.121c0-10.688,4.168-20.734,11.719-28.285l76.969-76.969c1.671-1.672,3.984-2.625,6.343-2.625c4.946,0,8.969,4.023,8.969,8.969
		v1.886c0,1.778-0.52,3.504-1.504,4.977l-29.152,43.727l13.312,8.875L366.945,336h44.367l53.376-53.375
		c1.671-1.672,3.984-2.625,6.343-2.625c4.946,0,8.969,4.023,8.969,8.969V290.855z M480,290.855"/>
</g>
</svg>
