<?xml version="1.0" encoding="iso-8859-1"?>
<!-- Generator: Adobe Illustrator 19.0.0, SVG Export Plug-In . SVG Version: 6.00 Build 0)  -->
<svg version="1.1" xmlns="http://www.w3.org/2000/svg" xmlns:xlink="http://www.w3.org/1999/xlink" x="0px" y="0px"
	 viewBox="0 0 496 496" style="enable-background:new 0 0 496 496;" xml:space="preserve">
<g id="&#x421;&#x43B;&#x43E;&#x439;_1">
	<g>
		<path style="fill:#97ABFF;" d="M432,350.559v-77.118l-30.512-6.097c-3.258-11.246-7.746-22.071-13.367-32.297l17.254-25.879
			l-54.535-54.535l-25.879,17.254c-10.227-5.621-21.051-10.11-32.297-13.367L286.559,128h-77.118l-6.097,30.512
			c-11.16,3.23-21.887,7.664-32.032,13.207l-26.199-17.047L90.68,209.105l17.047,26.2c-5.504,10.054-9.895,20.687-13.125,31.718
			L64,273.512v76.968l30.602,6.489c3.222,11.031,7.621,21.664,13.125,31.719L90.68,414.887l54.433,54.433l26.199-17.047
			c10.055,5.504,20.688,9.895,31.719,13.125L209.512,496h76.968l6.489-30.602c11.129-3.253,21.847-7.703,31.984-13.277
			l25.879,17.254l54.535-54.535l-17.254-25.879c5.621-10.227,10.11-21.051,13.367-32.297L432,350.559z M248,360
			c-26.512,0-48-21.488-48-48c0-26.512,21.488-48,48-48c26.512,0,48,21.488,48,48C296,338.512,274.512,360,248,360L248,360z
			 M248,360"/>
		<rect x="240" y="160" style="fill:#0F5C99;" width="16" height="16"/>
		<path style="fill:#0F5C99;" d="M134.867,210.172l11.313-11.313l11.316,11.313l-11.316,11.316L134.867,210.172z M134.867,210.172"
			/>
		<rect x="96" y="304" style="fill:#0F5C99;" width="16" height="16"/>
		<path style="fill:#0F5C99;" d="M134.863,413.82l11.317-11.316l11.312,11.316l-11.312,11.313L134.863,413.82z M134.863,413.82"/>
		<rect x="240" y="448" style="fill:#0F5C99;" width="16" height="16"/>
		<path style="fill:#0F5C99;" d="M338.504,413.82l11.312-11.312l11.313,11.312l-11.313,11.313L338.504,413.82z M338.504,413.82"/>
		<rect x="384" y="304" style="fill:#0F5C99;" width="16" height="16"/>
		<path style="fill:#0F5C99;" d="M338.504,210.176l11.316-11.317l11.313,11.317l-11.313,11.312L338.504,210.176z M338.504,210.176"
			/>
		<path style="fill:#0F5C99;" d="M248,416c-57.344,0-104-46.656-104-104s46.656-104,104-104c57.344,0,104,46.656,104,104
			S305.344,416,248,416L248,416z M248,224c-48.52,0-88,39.48-88,88s39.48,88,88,88s88-39.48,88-88S296.52,224,248,224L248,224z
			 M248,224"/>
		<path style="fill:#0F5C99;" d="M248,368c-30.871,0-56-25.121-56-56c0-30.879,25.129-56,56-56c30.871,0,56,25.121,56,56
			C304,342.879,278.871,368,248,368L248,368z M248,272c-22.055,0-40,17.945-40,40s17.945,40,40,40c22.055,0,40-17.945,40-40
			S270.055,272,248,272L248,272z M248,272"/>
		<rect x="432" y="416" style="fill:#0F5C99;" width="16" height="16"/>
		<rect x="432" y="448" style="fill:#0F5C99;" width="16" height="16"/>
		<rect x="448" y="432" style="fill:#0F5C99;" width="16" height="16"/>
		<rect x="416" y="432" style="fill:#0F5C99;" width="16" height="16"/>
		<rect x="16" y="432" style="fill:#0F5C99;" width="16" height="16"/>
		<rect x="16" y="464" style="fill:#0F5C99;" width="16" height="16"/>
		<rect x="32" y="448" style="fill:#0F5C99;" width="16" height="16"/>
		<rect y="448" style="fill:#0F5C99;" width="16" height="16"/>
		<rect x="464" y="160" style="fill:#0F5C99;" width="16" height="16"/>
		<rect x="464" y="192" style="fill:#0F5C99;" width="16" height="16"/>
		<rect x="480" y="176" style="fill:#0F5C99;" width="16" height="16"/>
		<rect x="448" y="176" style="fill:#0F5C99;" width="16" height="16"/>
		<rect x="32" y="176" style="fill:#0F5C99;" width="16" height="16"/>
		<rect x="32" y="208" style="fill:#0F5C99;" width="16" height="16"/>
		<rect x="48" y="192" style="fill:#0F5C99;" width="16" height="16"/>
		<rect x="16" y="192" style="fill:#0F5C99;" width="16" height="16"/>
		<g>
			<path style="fill:#0F5C99;" d="M424,144c-23.992,0-46.496-12.152-59.801-32H131.801C118.496,131.848,95.992,144,72,144
				c-16.512,0-32.09-5.512-45.023-15.938L24,125.664V96h35.055l12-24l-12-24H24V18.336l2.977-2.398C39.91,5.512,55.488,0,72,0
				c23.992,0,46.496,12.152,59.801,32h232.406C377.504,12.152,400.008,0,424,0c16.512,0,32.09,5.512,45.023,15.938L472,18.336V48
				h-35.055l-12,24l12,24H472v29.664l-2.977,2.398C456.09,138.488,440.512,144,424,144L424,144z M122.762,96h250.484l2.313,3.992
				C385.559,117.266,404.129,128,424,128c11.586,0,22.566-3.496,32-10.145V112h-28.945l-20-40l20-40H456v-5.855
				C446.566,19.496,435.586,16,424,16c-19.871,0-38.441,10.734-48.449,28.008L373.238,48H122.762l-2.313-3.992
				C110.441,26.734,91.871,16,72,16c-11.586,0-22.566,3.496-32,10.145V32h28.945l20,40l-20,40H40v5.855
				C49.434,124.504,60.414,128,72,128c19.871,0,38.441-10.734,48.449-28.008L122.762,96z M122.762,96"/>
		</g>
	</g>
</g>
<g id="&#x421;&#x43B;&#x43E;&#x439;_2">
</g>
</svg>
