<svg xmlns="http://www.w3.org/2000/svg" xmlns:xlink="http://www.w3.org/1999/xlink" preserveAspectRatio="xMidYMid" width="50" height="50" viewBox="0 0 50 50">
  <defs>
    <style>
      .cls-1 {
        fill: #55bce3;
      }

      .cls-2 {
        fill: #fff;
        fill-rule: evenodd;
      }
    </style>
  </defs>
  <g>
    <circle cx="25" cy="25" r="25" class="cls-1"/>
    <path d="M37.956,28.058 L37.956,25.134 C37.956,24.023 37.038,23.131 35.896,23.131 L34.473,22.913 L32.034,19.342 C32.000,19.314 31.971,19.247 31.937,19.219 C31.558,18.728 30.956,18.388 30.256,18.388 L25.631,18.388 L25.631,17.144 C25.631,16.513 25.149,16.000 24.552,16.000 L12.079,16.000 C11.482,16.000 11.000,16.513 11.000,17.144 L11.000,24.961 L11.000,29.201 L11.000,29.475 L11.000,30.646 C11.000,31.294 11.539,31.785 12.170,31.785 L13.852,31.785 C14.230,33.079 15.435,34.000 16.893,34.000 C18.350,34.000 19.555,33.045 19.934,31.785 L23.766,31.785 L30.290,31.785 C30.669,33.079 31.874,34.000 33.331,34.000 C34.788,34.000 35.993,33.045 36.372,31.785 L37.830,31.785 C38.495,31.785 39.000,31.260 39.000,30.646 L39.000,29.201 C39.000,28.610 38.524,28.119 37.956,28.058 ZM16.893,32.460 C16.003,32.460 15.309,31.751 15.309,30.920 C15.309,30.088 16.038,29.379 16.893,29.379 C17.782,29.379 18.476,30.088 18.476,30.920 C18.476,31.751 17.782,32.460 16.893,32.460 ZM27.800,23.030 C27.720,23.030 27.651,22.969 27.651,22.885 L27.651,20.056 C27.651,19.978 27.714,19.911 27.800,19.911 L30.313,19.911 C30.365,19.911 30.411,19.933 30.434,19.972 L32.390,22.801 C32.453,22.896 32.384,23.024 32.270,23.024 L27.800,23.024 L27.800,23.030 ZM33.331,32.460 C32.442,32.460 31.747,31.751 31.747,30.920 C31.747,30.088 32.476,29.379 33.331,29.379 C34.220,29.379 34.915,30.088 34.915,30.920 C34.915,31.751 34.186,32.460 33.331,32.460 Z" class="cls-2"/>
  </g>
</svg>
